<?xml version="1.0" standalone="no"?>
<!DOCTYPE svg PUBLIC "-//W3C//DTD SVG 1.1//EN" "http://www.w3.org/Graphics/SVG/1.1/DTD/svg11.dtd" >
<svg xmlns="http://www.w3.org/2000/svg">
<metadata>Generated by IcoMoon</metadata>
<defs>
<font id="icomoon" horiz-adv-x="1024">
<font-face units-per-em="1024" ascent="960" descent="-64" />
<missing-glyph horiz-adv-x="1024" />
<glyph unicode="&#x20;" horiz-adv-x="512" d="" />
<glyph unicode="&#xe900;" glyph-name="agenda" d="M808.687-81.305h-526.541c-98.979 0.116-179.186 80.323-179.302 179.291v657.351c0.116 98.979 80.323 179.186 179.291 179.302h526.552c98.979-0.116 179.186-80.323 179.302-179.291v-657.351c-0.116-98.979-80.323-179.186-179.291-179.302zM282.146 885.453c-71.837-0.078-130.053-58.282-130.15-130.107v-657.349c0.097-71.822 58.294-130.019 130.107-130.116h526.584c71.763 0.175 129.883 58.342 129.98 130.107v657.349c-0.097 71.822-58.294 130.019-130.107 130.116zM146.773 631.74h-86.187c-13.582 0-24.593 11.011-24.593 24.593s11.011 24.593 24.593 24.593h86.187c13.582 0 24.593-11.011 24.593-24.593s-11.011-24.593-24.593-24.593zM800.393 590.746h-517.632c-13.582 0-24.593 11.011-24.593 24.593s11.011 24.593 24.593 24.593h517.632c13.582 0 24.593-11.011 24.593-24.593s-11.011-24.593-24.593-24.593zM800.393 473.976h-517.632c-13.582 0-24.593 11.011-24.593 24.593s11.011 24.593 24.593 24.593h517.632c13.582 0 24.593-11.011 24.593-24.593s-11.011-24.593-24.593-24.593zM800.393 366.388h-517.632c-13.582 0-24.593 11.011-24.593 24.593s11.011 24.593 24.593 24.593h517.632c13.582 0 24.593-11.011 24.593-24.593s-11.011-24.593-24.593-24.593zM800.393 254.225h-517.632c-13.582 0-24.593 11.011-24.593 24.593s11.011 24.593 24.593 24.593h517.632c13.582 0 24.593-11.011 24.593-24.593s-11.011-24.593-24.593-24.593zM146.773 535.416h-86.187c-13.582 0-24.593 11.011-24.593 24.593s11.011 24.593 24.593 24.593h86.187c13.582 0 24.593-11.011 24.593-24.593s-11.011-24.593-24.593-24.593zM146.773 438.102h-86.187c-13.582 0-24.593 11.011-24.593 24.593s11.011 24.593 24.593 24.593h86.187c13.582 0 24.593-11.011 24.593-24.593s-11.011-24.593-24.593-24.593zM146.773 341.334h-86.187c-13.582 0-24.593 11.011-24.593 24.593s11.011 24.593 24.593 24.593h86.187c13.582 0 24.593-11.011 24.593-24.593s-11.011-24.593-24.593-24.593zM146.773 244.975h-86.187c-13.582 0-24.593 11.011-24.593 24.593s11.011 24.593 24.593 24.593h86.187c13.582 0 24.593-11.011 24.593-24.593s-11.011-24.593-24.593-24.593zM146.773 147.661h-86.187c-13.582 0-24.593 11.011-24.593 24.593s11.011 24.593 24.593 24.593h86.187c13.582 0 24.593-11.011 24.593-24.593s-11.011-24.593-24.593-24.593z" />
<glyph unicode="&#xe901;" glyph-name="back" d="M720.213-83.626c-12.252 0.005-23.341 4.974-31.368 13.005l-381.645 381.543c-29.586 29.639-47.881 70.556-47.881 115.746s18.296 86.108 47.884 115.749l381.608 381.54c8.032 8.032 19.129 13 31.386 13 24.514 0 44.386-19.872 44.386-44.386 0-12.257-4.968-23.353-13-31.386l-381.542-381.508c-13.536-13.58-21.905-32.317-21.905-53.009s8.369-39.429 21.907-53.011l381.54-381.506c8.046-8.033 13.023-19.136 13.023-31.403 0-24.507-19.867-44.373-44.373-44.373-0.006 0-0.013 0-0.019 0z" />
<glyph unicode="&#xe902;" glyph-name="codebar" d="M999.392 39.301c-13.591 0-24.609 11.017-24.609 24.609v724.013c0 13.591 11.017 24.609 24.609 24.609s24.609-11.017 24.609-24.609v-724.013c0-13.591-11.017-24.609-24.609-24.609zM669.219 39.678c-13.591 0-24.609 11.017-24.609 24.609v724.013c0 13.591 11.017 24.609 24.609 24.609s24.609-11.017 24.609-24.609v-724.013c0-13.591-11.017-24.609-24.609-24.609zM556.198 39.61v0c-17.060 0-30.889 13.83-30.889 30.889l0.446 711.657c0 17.060 13.83 30.889 30.889 30.889v0c17.060 0 30.889-13.83 30.889-30.889l-0.24-711.76c-0.058-17.015-13.865-30.787-30.889-30.787-0.072 0-0.145 0-0.217 0.001zM467.889 39.507c-13.546 0.058-24.505 11.054-24.505 24.608 0 0 0 0 0 0v724.184c0 13.591 11.017 24.609 24.609 24.609s24.609-11.017 24.609-24.609v-724.184c0 0 0 0 0 0 0-13.591-11.017-24.609-24.609-24.609-0.036 0-0.072 0-0.109 0zM355.074 39.369c-13.591 0-24.609 11.017-24.609 24.609v724.528c0 13.591 11.017 24.609 24.609 24.609s24.609-11.017 24.609-24.609v-724.528c0-13.591-11.017-24.609-24.609-24.609zM36.913 39.438c-20.369 0.019-36.876 16.527-36.895 36.893v699.646c-0.011 0.336-0.017 0.73-0.017 1.126 0 20.396 16.534 36.929 36.929 36.929s36.929-16.534 36.929-36.929c0-0.396-0.006-0.79-0.018-1.183l0.001-699.587c-0.019-20.381-16.546-36.895-36.929-36.895zM898.761 39.507c-0.010 0-0.022 0-0.034 0-6.786 0-12.287 5.501-12.287 12.287 0 0.012 0 0.024 0 0.036v747.624c-0.011 0.194-0.017 0.421-0.017 0.651 0 6.805 5.516 12.322 12.322 12.322s12.322-5.516 12.322-12.322c0-0.228-0.006-0.455-0.018-0.682l0.001-747.629c0-6.786-5.501-12.287-12.287-12.287zM818.105 39.438v0c-0.010 0-0.022 0-0.034 0-6.786 0-12.287 5.501-12.287 12.287 0 0.012 0 0.024 0 0.036v748.208c0 6.805 5.516 12.322 12.322 12.322v0c0.010 0 0.022 0 0.034 0 6.786 0 12.287-5.501 12.287-12.287 0-0.012 0-0.024 0-0.036v-748.208c0-6.805-5.516-12.322-12.322-12.322zM254.615 39.747c-6.79 0.019-12.287 5.528-12.287 12.322 0 0.012 0 0.024 0 0.036l-0.24 748.208c0 6.805 5.516 12.322 12.322 12.322v0c6.79-0.019 12.287-5.528 12.287-12.322 0 0 0 0 0 0l0.24-748.21c0-0.010 0-0.022 0-0.034 0-6.805-5.516-12.322-12.322-12.322 0 0 0 0 0 0zM161.775 39.438c-20.396 0-36.929 16.534-36.929 36.929v699.061c0.626 19.906 16.913 35.804 36.912 35.804s36.287-15.898 36.911-35.747l0.001-699.153c-0.019-20.369-16.527-36.876-36.893-36.895zM761.818 39.575c-10.198 0-18.465 8.267-18.465 18.465v736.025c0 10.198 8.267 18.465 18.465 18.465s18.465-8.267 18.465-18.465v-736.059c-0.019-10.183-8.279-18.431-18.465-18.431 0 0 0 0 0 0z" />
<glyph unicode="&#xe903;" glyph-name="price" d="M529.306 226.577v-48.742h-42.359v46.421c-34.133 0.58-66.731 8.704-99.772 17.408l18.569 49.323c27.307-10.445 51.2-21.47 81.237-22.050v137.455c-48.742 18.569-101.513 40.038-101.513 109.636 0 62.669 45.841 92.16 101.513 99.191v52.258h42.359v-51.2c25.532-1.741 58.027-6.383 83.524-15.087l-18.569-49.323c-17.988 8.124-37.137 16.828-64.853 19.149v-122.402c48.742-18.569 99.772-42.94 99.772-116.599-0.137-70.076-43.622-97.894-99.908-105.438zM487.526 569.413c-30.72-6.827-44.681-26.112-44.681-53.385 0-26.112 19.729-39.458 44.681-50.483zM528.725 387.823v-113.118c23.211 6.827 42.94 23.211 42.94 56.286 0 29.013-19.149 44.681-42.94 56.866zM461.824-87.040c-0.009 0-0.020 0-0.030 0-8.858 0-16.875 3.601-22.667 9.42l-429.433 429.399c-5.856 5.82-9.48 13.879-9.48 22.784s3.624 16.964 9.478 22.782l541.971 533.779c5.79 5.713 13.746 9.243 22.527 9.25h417.418c17.739 0 32.119-14.38 32.119-32.119v-433.493c-0.008-8.867-3.607-16.891-9.421-22.698l-529.613-529.681c-5.793-5.82-13.81-9.421-22.669-9.421-0.070 0-0.141 0-0.211 0.001zM77.995 374.306l383.829-383.829 497.664 497.63v388.062h-372.053zM811.008 620.647c-59.853 0-108.373 48.52-108.373 108.373s48.52 108.373 108.373 108.373c59.853 0 108.373-48.52 108.373-108.373-0.058-59.83-48.544-108.315-108.368-108.373zM811.008 789.197c-33.254 0-60.211-26.957-60.211-60.211s26.957-60.211 60.211-60.211c33.254 0 60.211 26.957 60.211 60.211-0.039 33.238-26.973 60.172-60.208 60.211z" />
<glyph unicode="&#xe904;" glyph-name="bonus" d="M1021.895 548.408c-4.919 14.995-17.761 26.062-33.451 28.334l-177.833 25.984-79.43 160.824c-6.966 13.871-21.080 23.223-37.38 23.223s-30.414-9.352-37.271-22.983l-79.54-161.063-66.638-9.679-86.707 175.511c-7.491 14.922-22.673 24.985-40.206 24.985s-32.716-10.062-40.089-24.727l-94.304-191.067-210.574-30.459c-21.875-3.227-38.473-21.869-38.473-44.388 0-12.612 5.206-24.008 13.588-32.156l152.306-148.548-35.976-209.829c-0.432-2.337-0.679-5.026-0.679-7.772 0-24.747 20.061-44.809 44.809-44.809 7.665 0 14.882 1.925 21.19 5.317l188.167 99.043 188.338-99.026c6.059-3.257 13.259-5.172 20.906-5.172 24.766 0 44.843 20.077 44.843 44.843 0 2.725-0.243 5.392-0.708 7.982l-15.798 92.12 72.797 38.277 158.895-83.796c5.633-3.030 12.325-4.811 19.434-4.811 23.009 0 41.661 18.652 41.661 41.661 0 2.525-0.225 4.997-0.655 7.399l-30.421 176.68 128.605 125.22c7.833 7.547 12.697 18.128 12.697 29.845 0 4.662-0.77 9.145-2.19 13.327zM404.322 206.083c-6.048 3.246-13.234 5.154-20.864 5.154s-14.816-1.908-21.105-5.272l-185.391-97.52 35.468 206.817c0.411 2.281 0.646 4.907 0.646 7.588 0 12.584-5.184 23.957-13.532 32.101l-150.376 146.449 207.663 30.256c14.928 2.205 27.293 11.493 33.726 24.279l92.849 188.292 92.866-188.135c6.545-13.047 18.913-22.338 33.599-24.507l207.873-30.184-150.265-146.44c-8.356-8.158-13.538-19.535-13.538-32.122 0-2.677 0.234-5.299 0.683-7.846l35.428-206.547zM848.177 412.019c-7.764-7.58-12.58-18.15-12.58-29.846 0-2.489 0.218-4.926 0.636-7.295l29.001-168.966-152.025 79.904c-5.626 3.025-12.31 4.802-19.409 4.802s-13.784-1.777-19.632-4.911l-61.507-32.347-11.812 68.804 152.295 148.538c8.355 8.152 13.538 19.525 13.538 32.107 0 22.497-16.567 41.125-38.167 44.349l-122.86 17.832c5.004 3.832 9.046 8.663 11.872 14.216l76.121 154.29 76.012-154.055c6.077-12.093 17.535-20.71 31.143-22.748l170.225-24.734z" />
<glyph unicode="&#xe905;" glyph-name="truck-1" d="M672.529 340.651h-664.405v-41.984h664.405v41.984zM1009.903 259.414v102.741c-44.373 42.803-86.494 47.104-86.494 47.104l-64.205 197.666h-154.112v-339.046l-356.386 0.956c7.253-12.44 11.534-27.383 11.534-43.326 0-6.87-0.795-13.555-2.298-19.966l396.678 0.59c-1.67 6.407-2.628 13.762-2.628 21.342 0 48.58 39.382 87.962 87.962 87.962s87.962-39.382 87.962-87.962c0-7.579-0.959-14.935-2.761-21.951l101.919 0.61v53.282zM744.892 405.402v124.587h88.747l43.588-124.723zM8.124 268.937c8.841-32.529 47.787-62.498 47.787-62.498h130.492c-1.351 5.75-2.125 12.351-2.125 19.133 0 15.957 4.286 30.914 11.769 43.781zM270.985 293.24c-38.117 0-69.018-30.9-69.018-69.018s30.9-69.018 69.018-69.018c38.117 0 69.018 30.9 69.018 69.018s-30.9 69.018-69.018 69.018zM270.985 203.674c-11.311 0-20.48 9.169-20.48 20.48s9.169 20.48 20.48 20.48c11.311 0 20.48-9.169 20.48-20.48 0-0.010 0-0.022 0-0.034 0-11.311-9.169-20.48-20.48-20.48 0 0 0 0 0 0zM839.509 292.386c-38.117 0-69.018-30.9-69.018-69.018s30.9-69.018 69.018-69.018c38.117 0 69.018 30.9 69.018 69.018s-30.9 69.018-69.018 69.018zM839.509 202.821c-11.311 0-20.48 9.169-20.48 20.48s9.169 20.48 20.48 20.48c11.311 0 20.48-9.169 20.48-20.48 0-0.010 0-0.022 0-0.034 0-11.311-9.169-20.48-20.48-20.48 0 0 0 0 0 0z" />
<glyph unicode="&#xe906;" glyph-name="truck-2" d="M-0.853 685.090h668.877v-372.361h-668.877v372.361zM1007.616 273.067v103.424c-44.817 43.11-87.074 47.411-87.074 47.411l-64.614 199.134h-155.17v-341.333l-358.878 0.99c7.306-12.526 11.619-27.574 11.619-43.63 0-6.92-0.801-13.653-2.316-20.111l399.477 0.594c-1.724 6.531-2.714 14.028-2.714 21.757 0 48.919 39.657 88.576 88.576 88.576s88.576-39.657 88.576-88.576c0-7.729-0.99-15.226-2.85-22.372l102.536 0.616v53.521zM740.693 420.045v125.406h89.225l43.964-125.406zM-0.853 282.761c8.909-32.768 48.026-62.908 48.026-62.908h131.447c-1.358 5.784-2.136 12.426-2.136 19.249 0 16.066 4.315 31.123 11.85 44.077zM836.096 307.2c-38.381 0-69.495-31.114-69.495-69.495s31.114-69.495 69.495-69.495c38.381 0 69.495 31.114 69.495 69.495s-31.114 69.495-69.495 69.495zM836.096 217.020c-11.424 0-20.685 9.261-20.685 20.685s9.261 20.685 20.685 20.685c11.424 0 20.685-9.261 20.685-20.685-0.019-11.409-9.273-20.651-20.685-20.651zM264.090 307.2c-38.381 0-69.495-31.114-69.495-69.495s31.114-69.495 69.495-69.495c38.381 0 69.495 31.114 69.495 69.495s-31.114 69.495-69.495 69.495zM262.827 217.054c-11.424 0-20.685 9.261-20.685 20.685s9.261 20.685 20.685 20.685c11.424 0 20.685-9.261 20.685-20.685s-9.261-20.685-20.685-20.685z" />
<glyph unicode="&#xe907;" glyph-name="wallet" d="M855.393 11.588h-686.649c-93.131 0.039-168.627 75.487-168.744 168.596v492.957c0.118 93.12 75.614 168.568 168.74 168.607h686.653c93.072-0.118 168.489-75.535 168.607-168.596v-492.956c-0.118-93.072-75.535-168.489-168.596-168.607zM168.744 795.5c-67.598-0.019-122.401-54.774-122.498-122.352v-492.955c0.098-67.587 54.9-122.342 122.496-122.361h686.651c67.539 0.098 122.263 54.822 122.361 122.352v492.955c-0.098 67.539-54.822 122.263-122.352 122.361zM719.711 138h-675.697c-12.77 0-23.123 10.352-23.123 23.123s10.352 23.123 23.123 23.123h675.697c12.77 0 23.123-10.352 23.123-23.123s-10.352-23.123-23.123-23.123zM993.306 141.707h-154.153c-12.77 0-23.123 10.352-23.123 23.123s10.352 23.123 23.123 23.123h154.153c12.77 0 23.123-10.352 23.123-23.123s-10.352-23.123-23.123-23.123zM972.124 323.67h-254.335c-67.047 0-121.399 54.352-121.399 121.399s54.352 121.399 121.399 121.399h254.335c12.77 0 23.123-10.352 23.123-23.123s-10.352-23.123-23.123-23.123h-254.335c-41.507 0-75.154-33.647-75.154-75.154s33.647-75.154 75.154-75.154h254.335c12.77 0 23.123-10.352 23.123-23.123s-10.352-23.123-23.123-23.123z" />
<glyph unicode="&#xe908;" glyph-name="close" d="M575.181 426.667l429.090 429.090c7.806 8.036 12.619 19.016 12.619 31.12 0 24.676-20.004 44.681-44.681 44.681-12.104 0-23.084-4.813-31.13-12.63l-429.079-429.080-429.090 429.090c-8.036 7.806-19.016 12.619-31.12 12.619-24.676 0-44.681-20.004-44.681-44.681 0-12.104 4.813-23.084 12.63-31.13l429.080-429.079-429.090-429.090c-8.368-8.129-13.561-19.489-13.561-32.061 0-24.676 20.004-44.681 44.681-44.681 12.572 0 23.932 5.193 32.051 13.55l429.1 429.101 429.090-429.090c8.036-7.806 19.016-12.619 31.12-12.619 24.676 0 44.681 20.004 44.681 44.681 0 12.104-4.813 23.084-12.63 31.13z" />
<glyph unicode="&#xe909;" glyph-name="confirmation" d="M555.179 288.29h-284.604c-88.747 0-155.887 62.43-155.887 145.203 0 11.801 9.567 21.367 21.367 21.367s21.367-9.567 21.367-21.367c0-59.358 47.582-102.4 113.118-102.4h284.604c62.442 0.078 113.040 50.676 113.118 113.11v134.356c-0.078 62.442-50.676 113.040-113.11 113.118h-184.669c-11.801 0-21.367 9.567-21.367 21.367s9.567 21.367 21.367 21.367h184.695c86.055-0.097 155.79-69.832 155.887-155.877v-134.392c-0.117-86.040-69.844-155.756-155.878-155.853zM1002.633 149.982h-76.595c-11.801 0-21.367 9.567-21.367 21.367s9.567 21.367 21.367 21.367h55.228v108.681l-80.486 206.063h-149.231c-11.801 0-21.367 9.567-21.367 21.367s9.567 21.367 21.367 21.367h163.84c9.015-0.012 16.722-5.605 19.849-13.509l87.295-223.581c0.929-2.303 1.468-4.973 1.468-7.77 0-0.004 0-0.009 0-0.013v-134.075c-0.058-11.757-9.602-21.265-21.367-21.265 0 0 0 0 0 0zM634.539 147.866h-151.108c-11.801 0-21.367 9.567-21.367 21.367s9.567 21.367 21.367 21.367h151.108c11.801 0 21.367-9.567 21.367-21.367s-9.567-21.367-21.367-21.367zM194.048 145.75h-61.713c0 0 0 0 0 0-11.801 0-21.367 9.567-21.367 21.367 0 0.048 0 0.096 0 0.144v125.399c0 11.801 9.567 21.367 21.367 21.367s21.367-9.567 21.367-21.367v-104.175h40.346c11.801 0 21.367-9.567 21.367-21.367s-9.567-21.367-21.367-21.367zM334.507 27.99c-63.51 0-114.995 51.485-114.995 114.995s51.485 114.995 114.995 114.995c63.51 0 114.995-51.485 114.995-114.995-0.078-63.479-51.516-114.918-114.988-114.995zM334.507 215.245c-39.908 0-72.26-32.352-72.26-72.26s32.352-72.26 72.26-72.26c39.908 0 72.26 32.352 72.26 72.26-0.039 39.893-32.368 72.221-72.257 72.26zM779.947 27.99c-63.51 0-114.995 51.485-114.995 114.995s51.485 114.995 114.995 114.995c63.51 0 114.995-51.485 114.995-114.995-0.078-63.479-51.516-114.918-114.988-114.995zM779.947 215.245c-39.908 0-72.26-32.352-72.26-72.26s32.352-72.26 72.26-72.26c39.908 0 72.26 32.352 72.26 72.26-0.039 39.893-32.368 72.221-72.257 72.26zM210.159 404.958c-116.086 0-210.193 94.107-210.193 210.193s94.107 210.193 210.193 210.193c116.086 0 210.193-94.107 210.193-210.193-0.136-116.032-94.161-210.057-210.18-210.193zM210.159 782.575c-92.466 0-167.424-74.958-167.424-167.424s74.958-167.424 167.424-167.424c92.466 0 167.424 74.958 167.424 167.424-0.117 92.419-75.005 167.308-167.413 167.424zM148.378 526.917c-0.008 0-0.016 0-0.025 0-6.173 0-11.734 2.622-15.63 6.813l-49.881 53.705c-3.537 3.803-5.708 8.918-5.708 14.541 0 11.805 9.57 21.375 21.375 21.375 6.183 0 11.752-2.625 15.655-6.821l36.228-38.993 134.042 110.046c3.671 3.061 8.438 4.919 13.638 4.919 11.801 0 21.367-9.567 21.367-21.367 0-6.68-3.065-12.644-7.866-16.562l-149.679-122.91c-3.627-2.955-8.305-4.745-13.402-4.745-0.040 0-0.081 0-0.121 0z" />
<glyph unicode="&#xe90a;" glyph-name="check-rounded" d="M778.991-88.473h-533.982c-100.374 0.116-181.712 81.454-181.828 181.817v666.635c0.116 100.374 81.454 181.712 181.817 181.828h533.993c100.374-0.116 181.712-81.454 181.828-181.817v-666.635c-0.116-100.374-81.454-181.712-181.817-181.828zM245.009 891.938c-72.848-0.078-131.882-59.112-131.959-131.952v-666.631c0.078-72.848 59.112-131.882 131.952-131.959h533.989c72.848 0.078 131.882 59.112 131.959 131.952v666.631c-0.078 72.848-59.112 131.882-131.952 131.959zM403.968 298.53c-0.013 0-0.029 0-0.045 0-7.201 0-13.688 3.054-18.237 7.938l-108.080 116.376c-4.901 4.569-7.957 11.062-7.957 18.269 0 13.78 11.171 24.951 24.951 24.951 7.828 0 14.815-3.605 19.389-9.246l92.196-99.238 306.005 251.085c4.278 3.531 9.816 5.673 15.855 5.673 13.803 0 24.992-11.189 24.992-24.992 0-7.764-3.54-14.701-9.095-19.285l-324.309-266.001c-4.23-3.444-9.686-5.53-15.628-5.53-0.014 0-0.028 0-0.041 0z" />
<glyph unicode="&#xe90b;" glyph-name="money" d="M887.023 129.127h-750.046c-75.651 0.117-136.938 61.451-136.977 137.11v320.857c0.039 75.662 61.326 136.997 136.966 137.114h750.057c75.651-0.117 136.938-61.451 136.977-137.11v-320.857c-0.039-75.662-61.326-136.997-136.966-137.114zM136.977 686.626c-54.919-0.078-99.411-44.606-99.43-99.531v-320.855c0.058-54.909 44.555-99.406 99.459-99.465h750.017c54.895 0.078 99.372 44.567 99.43 99.459v320.859c-0.058 54.909-44.555 99.406-99.459 99.465zM529.715 269.244v-39.117h-34.133v37.239c-27.477 0.478-53.555 6.827-80.111 13.961l14.916 39.595c21.879-8.397 40.96-17.067 65.229-17.715v110.421c-39.117 14.916-81.51 32.154-81.51 88.030 0 50.313 36.796 74.069 81.51 79.633v41.95h34.133v-40.96c24.454-1.504 47.317-5.876 69.039-12.805l-16.917-39.044c-14.438 6.519-29.798 13.653-52.156 15.36v-98.27c39.117-14.916 80.111-34.475 80.111-93.628 0-56.252-34.953-78.609-80.111-84.651zM496.162 544.529c-24.678-5.598-35.874-20.958-35.874-42.837 0-20.958 15.838-31.676 35.874-40.516zM529.067 398.712v-90.829c18.637 5.598 34.475 18.637 34.475 45.193 0.171 23.279-15.223 35.874-34.475 45.636z" />
<glyph unicode="&#xe90c;" glyph-name="unlock" d="M761.754-81.032h-499.507c-96.283 0.117-174.305 78.138-174.421 174.41v245.157c0.117 96.283 78.138 174.305 174.41 174.421h499.518c96.283-0.117 174.305-78.138 174.421-174.41v-245.157c-0.117-96.283-78.138-174.305-174.41-174.421zM262.246 463.121c-68.776-0.078-124.509-55.811-124.587-124.579v-245.153c0.078-68.776 55.811-124.509 124.579-124.587h499.515c68.776 0.078 124.509 55.811 124.587 124.579v245.153c-0.078 68.776-55.811 124.509-124.579 124.587zM252.348 473.498c-13.761 0-24.917 11.156-24.917 24.917v198.861c0.175 130.871 106.219 236.915 237.073 237.090h94.976c130.898-0.155 236.969-106.227 237.124-237.11 0-13.776-11.156-24.932-24.917-24.932s-24.917 11.156-24.917 24.917c-0.136 103.364-83.892 187.12-187.243 187.255h-95.006c-103.352-0.136-187.1-83.872-187.255-187.206v-198.944c-0.039-13.732-11.18-24.849-24.917-24.849 0 0 0 0 0 0z" />
<glyph unicode="&#xe90d;" glyph-name="chat" d="M333.756 430.695c0-28.805-23.351-52.156-52.156-52.156s-52.156 23.351-52.156 52.156c0 28.805 23.351 52.156 52.156 52.156s52.156-23.351 52.156-52.156zM559.821 426.36c0-28.805-23.351-52.156-52.156-52.156s-52.156 23.351-52.156 52.156c0 28.805 23.351 52.156 52.156 52.156s52.156-23.351 52.156-52.156zM794.556 422.025c0-28.805-23.351-52.156-52.156-52.156s-52.156 23.351-52.156 52.156c0 28.805 23.351 52.156 52.156 52.156s52.156-23.351 52.156-52.156zM59.699 0.546c-0.001 0-0.003 0-0.004 0-19.172 0-34.714 15.542-34.714 34.714 0 2.772 0.325 5.468 0.939 8.052l29.034 125.716-3.925 5.461c-22.733 31.505-51.029 70.724-51.029 117.111v318.225c0.175 134.125 108.867 242.806 242.98 242.961h538.025c134.128-0.155 242.821-108.836 242.995-242.944v-318.208c-0.155-134.14-108.855-242.84-242.98-242.995h-533.553l-178.927-46.967c-2.634-0.715-5.659-1.126-8.78-1.126-0.021 0-0.042 0-0.064 0zM242.995 783.36c-95.808-0.097-173.451-77.728-173.568-173.522v-318.202c0-23.893 20.139-51.917 37.922-76.527 4.779-6.656 9.455-13.107 13.653-19.354 3.729-5.451 5.955-12.186 5.955-19.441 0-2.79-0.329-5.503-0.951-8.102l-19.579-84.824 127.727 33.519c2.634 0.715 5.659 1.126 8.78 1.126 0.009 0 0.019 0 0.028 0h538.042c95.82 0.097 173.471 77.748 173.568 173.559v318.234c-0.116 95.805-77.76 173.437-173.558 173.534z" />
<glyph unicode="&#xe90e;" glyph-name="favorite" d="M784.043-58.777c-11.415 0.007-22.158 2.874-31.554 7.923l-240.488 126.425-240.845-126.601c-9.027-4.842-19.749-7.687-31.136-7.687-36.949 0-66.901 29.953-66.901 66.901 0 3.994 0.35 7.906 1.021 11.708l45.919 267.783-194.799 189.918c-12.483 12.166-20.226 29.143-20.226 47.929 0 33.571 24.727 61.367 56.962 66.168l269.576 39.127 120.422 243.985c11.167 22.288 33.831 37.321 60.006 37.321s48.84-15.032 59.831-36.935l120.598-244.371 269.244-39.117c32.587-4.859 57.299-32.648 57.299-66.209 0-18.788-7.745-35.767-20.216-47.919l-194.813-189.898 45.978-268.151c0.602-3.376 0.947-7.263 0.947-11.23 0-36.956-29.888-66.931-66.811-67.072zM96.051 517.666l182.784-178.176c12.468-12.148 20.202-29.102 20.202-47.862 0-4.038-0.358-7.992-1.045-11.832l-43.050-251.090 225.929 118.784c9.026 4.837 19.746 7.679 31.13 7.679s22.104-2.842 31.489-7.855l225.603-118.609-43.145 251.563c-0.615 3.406-0.967 7.326-0.967 11.328 0 18.773 7.74 35.739 20.204 47.879l182.799 178.19-252.587 36.693c-22.232 3.326-40.636 17.182-50.205 36.24l-113.191 229.284-112.981-228.898c-9.753-19.429-28.155-33.272-50.013-36.546zM950.443 514.253v0z" />
<glyph unicode="&#xe90f;" glyph-name="make-freight" d="M305.493 204.322h-158.72c-81.872 0.019-148.246 66.346-148.343 148.198v45.885c0.117 81.847 66.483 148.153 148.342 148.173h158.722c81.813-0.097 148.11-66.394 148.207-148.198v-45.884c-0.116-81.799-66.405-148.076-148.197-148.173zM146.773 507.7c-60.277-0.116-109.11-48.949-109.227-109.215v-45.887c0.116-60.277 48.949-109.11 109.215-109.227h158.731c60.277 0.116 109.11 48.949 109.227 109.215v45.818c-0.116 60.277-48.949 109.11-109.215 109.227zM669.662 100.318h-57.617c-10.736 0-19.439 8.703-19.439 19.439s8.703 19.439 19.439 19.439h38.195v77.722l-59.46 152.269h-109.978c-10.736 0-19.439 8.703-19.439 19.439s8.703 19.439 19.439 19.439h123.358c0.003 0 0.007 0 0.010 0 8.19 0 15.198-5.060 18.068-12.225l65.651-168.169c0.842-2.095 1.33-4.523 1.331-7.065v-100.83c0-0.010 0-0.022 0-0.035 0-10.726-8.695-19.422-19.422-19.422-0.048 0-0.096 0-0.144 0.001zM392.772 98.714h-113.63c-10.736 0-19.439 8.703-19.439 19.439s8.703 19.439 19.439 19.439h113.63c10.736 0 19.439-8.703 19.439-19.439s-8.703-19.439-19.439-19.439zM61.44 97.11h-46.353c-10.726 0-19.422 8.695-19.422 19.422v94.447c0 10.736 8.703 19.439 19.439 19.439s19.439-8.703 19.439-19.439v-75.093h26.897c10.736 0 19.439-8.703 19.439-19.439s-8.703-19.439-19.439-19.439zM167.253 8.568c-49.617 0-89.839 40.222-89.839 89.839s40.222 89.839 89.839 89.839c49.617 0 89.839-40.222 89.839-89.839-0.058-49.593-40.246-89.781-89.833-89.839zM167.253 149.402c-0.041 0-0.089 0-0.137 0-28.164 0-50.995-22.831-50.995-50.995s22.831-50.995 50.995-50.995c28.164 0 50.995 22.831 50.995 50.995-0.115 28.070-22.8 50.802-50.84 50.995zM502.135 8.568c-49.617 0-89.839 40.222-89.839 89.839s40.222 89.839 89.839 89.839c49.617 0 89.839-40.222 89.839-89.839-0.058-49.593-40.246-89.781-89.833-89.839zM502.135 149.402c-0.051 0-0.111 0-0.171 0-28.164 0-50.995-22.831-50.995-50.995s22.831-50.995 50.995-50.995c28.164 0 50.995 22.831 50.995 50.995-0.115 28.058-22.781 50.783-50.804 50.995zM648.124 442.368c-11.311 0-20.48 9.169-20.48 20.48v112.64c0 11.311 9.169 20.48 20.48 20.48s20.48-9.169 20.48-20.48v-112.64c0-11.311-9.169-20.48-20.48-20.48zM834.048 427.077h-184.32c-11.311 0-20.48 9.169-20.48 20.48s9.169 20.48 20.48 20.48h184.32c11.311 0 20.48-9.169 20.48-20.48s-9.169-20.48-20.48-20.48zM744.687 97.383c-11.245 0.087-20.327 9.222-20.327 20.479 0 9.311 6.214 17.171 14.721 19.659 144.471 41.246 248.353 171.965 248.353 326.947 0 187.439-151.949 339.388-339.388 339.388-142.746 0-264.91-88.127-315.051-212.943-4.047-9.589-11.234-14.593-19.59-14.593-11.311 0-20.48 9.169-20.48 20.48 0 2.442 0.428 4.785 1.212 6.957 57.052 142.279 193.944 241.031 353.902 241.031 210.041 0 380.314-170.272 380.314-380.314 0-173.682-116.424-320.172-275.488-365.684-4.33-1.134-6.222-1.408-8.178-1.408 0 0 0 0-0.001 0z" />
<glyph unicode="&#xe910;" glyph-name="cog" d="M216.913 126.945c-0.017 0-0.037 0-0.057 0-7.857 0-15.288 1.819-21.898 5.058l-42.822 20.401c-17.087 8.301-28.656 25.524-28.656 45.449 0 7.883 1.811 15.343 5.040 21.987l10.374 21.669c-16.617 15.348-30.983 32.772-42.782 51.944l-23.671-4.243c-3.38-0.808-7.261-1.272-11.251-1.272-23.761 0-43.682 16.442-49.007 38.568l-10.883 46.984c-0.826 3.413-1.299 7.331-1.299 11.36 0 23.751 16.462 43.658 38.598 48.933l21.558 4.962c1.685 25.35 6.976 48.961 15.377 71.038l-16.814 11.258c-11.624 9.295-19.005 23.476-19.005 39.38 0 11.901 4.132 22.836 11.041 31.448l29.625 37.302c9.308 11.618 23.495 18.994 39.404 18.994 11.902 0 22.84-4.128 31.459-11.031l14.956-12.002c18.815 13.209 40.529 24.117 63.775 31.618l1.719 19.3c0.039 27.784 22.551 50.296 50.332 50.336h47.909c27.784-0.039 50.296-22.551 50.336-50.332v-18.653c24.291-7.738 45.421-18.201 64.579-31.334l13.987 12.548c8.574 6.99 19.636 11.225 31.687 11.225 15.749 0 29.809-7.233 39.039-18.559l30.15-37.219c7-8.581 11.241-19.655 11.241-31.719 0-15.746-7.226-29.805-18.542-39.041l-16.139-13.041c8.053-20.367 13.553-43.951 15.384-68.556l21.127-5.493c22.691-5.153 39.375-25.151 39.375-49.045 0-3.902-0.445-7.7-1.287-11.346l-10.199-46.233c-5.178-22.739-25.223-39.453-49.173-39.453-3.869 0-7.635 0.436-11.253 1.262l-22.622 4.999c-12.331-20.424-26.646-38.006-43.076-53.353l10.5-21.928c3.209-6.444 5.087-14.036 5.087-22.066 0-19.747-11.355-36.842-27.893-45.111l-43.304-21.074c-6.433-3.193-14.010-5.062-22.023-5.062-19.77 0-36.883 11.374-45.153 27.936l-11.185 22.91c-10.401-1.534-22.407-2.41-34.618-2.41-11.588 0-22.99 0.789-34.159 2.316l-9.55-22.969c-8.327-17.015-25.476-28.547-45.327-28.641zM114.257 336.672l6.639-12.456c13.531-25.107 31.077-46.278 52.022-63.457l11.522-9.429-22.722-47.633c-0.802-1.688-1.269-3.668-1.269-5.757 0-5.354 3.075-9.991 7.556-12.241l43.195-20.567c1.688-0.802 3.668-1.269 5.757-1.269 5.354 0 9.991 3.075 12.241 7.556l22.791 48.122 13.961-2.704c12.012-2.417 25.82-3.799 39.952-3.799 14.695 0 29.039 1.496 42.892 4.343l12.593 2.605 23.337-47.906c2.306-4.497 6.909-7.522 12.22-7.522 2.137 0 4.16 0.49 5.963 1.363l42.863 20.872c4.505 2.303 7.536 6.911 7.536 12.227 0 2.121-0.482 4.13-1.344 5.922l-22.993 47.208 11.087 9.239c21.096 17.647 38.437 38.986 51.191 63.124l7.084 13.662 50.13-11.087c0.909-0.221 1.954-0.347 3.029-0.347 2.689 0 5.192 0.793 7.289 2.158 2.939 1.898 5.103 4.888 5.919 8.397l10.284 46.733c0.239 0.94 0.375 2.019 0.375 3.131 0 2.65-0.778 5.117-2.117 7.187-1.878 2.936-4.862 5.095-8.365 5.886l-49.126 10.898-0.206 14.543c-0.386 30.008-7.103 58.352-18.872 83.888l-5.32 11.65 37.641 30.557c3.029 2.528 4.941 6.305 4.941 10.528 0 3.223-1.114 6.186-2.978 8.524l-29.989 37.202c-2.528 3.041-6.313 4.962-10.546 4.962-3.215 0-6.171-1.109-8.508-2.964l-37.030-29.988-11.532 8.76c-21.485 16.679-46.953 29.398-74.662 36.539l-15.366 3.736v46.982c0 7.56-6.128 13.687-13.687 13.687h-47.906c-7.56 0-13.687-6.128-13.687-13.687v-46.914l-13.893-3.422c-29.556-7.739-55.326-20.927-77.409-38.543l-11.012-8.645-37.435 29.77c-2.262 1.833-5.175 2.942-8.347 2.942-0.579 0-1.151-0.037-1.711-0.109-3.606-0.451-6.776-2.305-8.947-4.996l-29.722-37.393c-1.833-2.287-2.941-5.223-2.941-8.418 0-4.27 1.979-8.076 5.071-10.553l38.112-30.339-5.68-12.969c-10.975-24.339-17.434-52.749-17.588-82.65v-14.599l-49.103-11.326c-3.578-0.858-6.543-3.032-8.419-5.968-1.307-2.095-2.063-4.573-2.063-7.229 0-1.097 0.129-2.163 0.373-3.185l10.76-46.479c1.462-6.106 6.873-10.574 13.329-10.574 1.025 0 2.022 0.112 2.982 0.326zM306.052 284.796c-78.338 0.019-141.837 63.529-141.837 141.871 0 78.353 63.517 141.871 141.871 141.871s141.871-63.517 141.871-141.871c-0.097-78.325-63.577-141.793-141.897-141.871zM306.052 531.752c-58.037 0-105.085-47.048-105.085-105.085s47.048-105.085 105.085-105.085c58.037 0 105.085 47.048 105.085 105.085-0.058 58.014-47.072 105.027-105.080 105.085zM843.183 278.637c-17.669 0.070-32.565 11.856-37.331 27.988l-4.382 15.024c-16.272 0.452-31.767 3.010-46.468 7.408l-7.324-12.507c-7.161-10.109-18.812-16.627-31.985-16.627-8.338 0-16.066 2.612-22.411 7.061l-27.9 19.661c-10.165 7.141-16.728 18.814-16.728 32.020 0 8.413 2.664 16.204 7.193 22.577l7.686 10.898c-9.159 11.934-17.046 25.572-23.043 40.185l-13.194 0.467c-0.633-0.037-1.372-0.057-2.117-0.057-20.758 0-37.729 16.213-38.94 36.667l-1.99 34.326c-0.035 0.623-0.056 1.351-0.056 2.085 0 20.764 16.209 37.742 36.664 38.972l11.708 0.656c4.349 17.242 10.614 32.385 18.727 46.322l-7.982 7.573c-6.148 6.874-9.906 15.999-9.906 26.002 0 11.537 4.999 21.906 12.95 29.059l25.631 22.889c6.872 6.156 15.999 9.92 26.004 9.92 11.539 0 21.909-5.005 29.056-12.963l7.424-8.454c13.222 5.955 28.578 10.511 44.637 12.917l2.926 11.447c3.064 18.749 19.144 32.883 38.525 32.883 2.226 0 4.407-0.186 6.53-0.544l33.613-5.443c18.712-3.097 32.806-19.159 32.806-38.513 0-2.206-0.183-4.368-0.534-6.473l-2.022-12.33c14.706-7.915 27.376-17.137 38.642-27.825l11.556 6.609c5.484 3.131 12.051 4.977 19.050 4.977 14.551 0 27.239-7.982 33.923-19.805l16.868-30.033c3.137-5.496 4.985-12.078 4.985-19.092 0-14.544-7.953-27.231-19.747-33.95l-13.093-7.355c1.854-9.666 2.913-20.783 2.913-32.148 0-4.787-0.188-9.531-0.557-14.222l14.205-5.163c9.632-4.021 17.155-11.488 21.153-20.824 2.027-4.704 3.151-9.886 3.151-15.329 0-5.287-1.060-10.327-2.977-14.918l-12.908-31.534c-5.994-14.359-19.921-24.266-36.162-24.266-5.307 0-10.367 1.058-14.98 2.974l-14.523 5.927c-9.848-11.332-20.83-21.261-32.89-29.762l3.942-15.783c0.98-3.263 1.544-7.013 1.544-10.895 0-11.55-4.993-21.934-12.938-29.11-4.187-3.785-9.206-6.669-14.748-8.343l-33.125-9.652c-3.294-0.998-7.080-1.574-10.999-1.574-0.019 0-0.038 0-0.056 0zM825.424 354.294l11.258-38.53c0.531-1.748 1.694-3.167 3.216-4.020 0.987-0.552 2.126-0.868 3.338-0.868 0.676 0 1.329 0.098 1.946 0.281l32.87 9.603c2.845 0.873 4.878 3.477 4.878 6.555 0 0.664-0.094 1.304-0.271 1.911l-11.314 38.858 10.711 6.399c16.815 10.218 30.951 23.057 42.294 38.116l7.733 10.372 37.435-15.261c0.749-0.307 1.619-0.485 2.53-0.485 2.844 0 5.283 1.734 6.316 4.203l12.985 31.766c0.31 0.753 0.489 1.626 0.489 2.542 0 2.833-1.721 5.263-4.174 6.304l-37.172 15.176 1.848 12.49c1.014 6.487 1.592 13.968 1.592 21.585 0 12.926-1.667 25.463-4.797 37.406l-2.817 10.952 34.218 19.129c1.549 0.885 2.701 2.316 3.204 4.024 0.175 0.605 0.269 1.244 0.269 1.906 0 1.228-0.324 2.381-0.89 3.378l-16.75 29.839c-1.198 2.089-3.416 3.474-5.957 3.474-1.204 0-2.335-0.311-3.317-0.856l-33.396-18.734-8.794 9.376c-13.323 14.44-29.402 26.114-47.431 34.225l-12.281 5.4 5.886 36.614c0.051 0.316 0.081 0.68 0.081 1.050 0 3.385-2.458 6.196-5.686 6.747l-33.917 5.481c-0.316 0.051-0.68 0.081-1.050 0.081-3.385 0-6.196-2.458-6.747-5.686l-5.754-36.004-12.661-0.958c-21.16-1.598-40.626-7.465-58-16.74l-10.335-5.435-23.953 26.759c-1.17 1.298-2.82 2.145-4.669 2.258-0.107 0.005-0.211 0.007-0.315 0.007-1.763 0-3.374-0.651-4.606-1.724l-25.587-22.851c-1.38-1.257-2.244-3.061-2.244-5.067 0-1.749 0.657-3.345 1.736-4.555l23.947-26.787-7.014-10.266c-10.983-16.006-18.974-34.959-22.69-55.401l-2.358-13.412-36.545-2.121c-3.604-0.218-6.444-3.193-6.444-6.832 0-0.136 0.004-0.272 0.012-0.407l1.984-34.2c0.104-1.881 0.952-3.545 2.253-4.717 1.208-1.075 2.8-1.727 4.545-1.727 0.136 0 0.273 0.004 0.407 0.012l37.074 2.12 3.867-11.771c6.628-19.972 16.723-37.186 29.695-51.785l8.288-9.397-22.173-31.412c-0.767-1.091-1.226-2.446-1.226-3.908 0-2.288 1.123-4.314 2.848-5.557l28.045-19.758c1.091-0.767 2.446-1.226 3.908-1.226 2.288 0 4.314 1.123 5.557 2.848l22.598 32.015 11.6-4.244c15.122-5.745 32.606-9.073 50.868-9.073 2.268 0 4.524 0.051 6.767 0.152zM804.585 398.676c-0.008 0-0.017 0-0.027 0-57.829 0-104.709 46.88-104.709 104.709s46.88 104.709 104.709 104.709c30.964 0 58.79-13.441 77.959-34.806l0.086-0.097c16.571-18.441 26.706-42.957 26.706-69.84 0-57.81-46.865-104.675-104.675-104.675-0.017 0-0.035 0-0.052 0zM804.585 575.86c-40.017-0.039-72.441-32.487-72.441-72.51 0-40.046 32.464-72.51 72.51-72.51s72.51 32.464 72.51 72.51c0 18.593-6.998 35.552-18.504 48.385l0.060-0.068c-12.426 13.897-30.065 22.909-49.816 23.946-1.683 0.213-3.086 0.247-4.454 0.247z" />
<glyph unicode="&#xe911;" glyph-name="hamburguer" d="M996.693 600.986h-969.387c-15.298 0-27.699 12.401-27.699 27.699s12.401 27.699 27.699 27.699h969.387c15.288 0 27.682-12.394 27.682-27.682s-12.394-27.682-27.682-27.682zM996.693 388.711h-969.387c-15.288 0-27.682 12.394-27.682 27.682s12.394 27.682 27.682 27.682h969.387c15.288 0 27.682-12.394 27.682-27.682s-12.394-27.682-27.682-27.682zM996.693 194.902h-969.387c-15.288 0-27.682 12.394-27.682 27.682s12.394 27.682 27.682 27.682h969.387c15.288 0 27.682-12.394 27.682-27.682s-12.394-27.682-27.682-27.682z" />
<glyph unicode="&#xe912;" glyph-name="help" d="M458.479 249.31h59.87c3.11 0 5.632-2.522 5.632-5.632v-62.839c0-3.11-2.522-5.632-5.632-5.632h-59.87c-3.11 0-5.632 2.522-5.632 5.632v62.839c0 3.11 2.522 5.632 5.632 5.632zM501.146 678.161c-44.066 0-94.481-15.906-114.108-22.767-2.142-0.829-3.634-2.873-3.634-5.266 0-0.556 0.081-1.093 0.231-1.601l13.336-46.416c0.719-2.34 2.861-4.011 5.394-4.011 0.921 0 1.79 0.221 2.557 0.613 24.578 12.307 68.235 25.585 96.224 25.585 53.589 0 74.445-18.773 74.445-66.97 0-29.628-22.903-47.582-49.391-68.267-32.631-25.6-69.598-54.613-69.598-112.64v-72.602c0-3.11 2.522-5.632 5.632-5.632h51.644c3.11 0 5.632 2.522 5.632 5.632v68.574c0 35.874 27.307 58.402 55.979 82.261 32.085 26.624 65.297 54.135 65.297 102.571-0.034 81.374-45.705 120.934-139.639 120.934zM58.573-0.512c0 0-0.001 0-0.001 0-19.228 0-34.816 15.588-34.816 34.816 0 2.772 0.324 5.468 0.936 8.053l29.103 126.057-3.891 5.461c-22.801 31.607-51.2 70.929-51.2 117.487v318.908c0.155 134.484 109.154 243.459 243.632 243.575h539.318c134.46-0.155 243.42-109.115 243.575-243.56v-318.991c-0.194-134.431-109.139-243.352-243.561-243.507h-534.884l-179.371-47.172c-2.64-0.715-5.671-1.126-8.798-1.126-0.015 0-0.030 0-0.045 0zM242.347 784.248c-96.142 0-174.080-77.938-174.080-174.080v-318.976c0-23.893 20.207-52.053 38.025-76.766 4.813-6.656 9.455-13.107 13.653-19.354 3.737-5.472 5.968-12.232 5.968-19.513 0-2.764-0.321-5.452-0.929-8.030l-19.648-85.097 128.137 33.621c2.64 0.715 5.671 1.126 8.798 1.126 0.015 0 0.030 0 0.045 0h539.338c96.142 0 174.080 77.938 174.080 174.080v319.010c0 96.142-77.938 174.080-174.080 174.080z" />
<glyph unicode="&#xe913;" glyph-name="user" d="M511.947 421.342c-142.855 0-258.662 115.807-258.662 258.662s115.807 258.662 258.662 258.662c142.855 0 258.662-115.807 258.662-258.662-0.175-142.785-115.877-258.487-258.645-258.662zM511.947 874.667c-107.453 0-194.56-87.107-194.56-194.56s87.107-194.56 194.56-194.56c107.453 0 194.56 87.107 194.56 194.56-0.194 107.375-87.186 194.366-194.542 194.56zM911.956-85.333c-17.656 0.019-31.964 14.327-31.983 31.981 0 203.238-164.755 367.993-367.991 367.993s-367.991-164.755-367.991-367.991c-0.58-17.227-14.685-30.972-32-30.972s-31.42 13.745-31.999 30.919c-0.001 238.645 193.415 432.062 432.007 432.062s432.009-193.417 432.009-432.009c-0.019-17.668-14.347-31.983-32.017-31.983-0.012 0-0.024 0-0.036 0z" />
<glyph unicode="&#xe914;" glyph-name="mini-van-1" d="M998.366 343.621v59.358c0 78.507-201.045 78.507-201.045 78.507l-120.661 147.422h-198.997v-206.199h-440.491l-1.946 1.195v-66.901h-30.72v-82.33h122.675c-0.58 2.355-1.126 4.745-1.536 7.168-0.955 5.148-1.502 11.072-1.502 17.124 0 54.33 44.043 98.372 98.372 98.372s98.372-44.043 98.372-98.372c0-6.052-0.546-11.975-1.593-17.725-0.319-1.822-0.865-4.212-1.445-6.567h446.976c-0.58 2.355-1.126 4.745-1.536 7.168-0.955 5.148-1.502 11.072-1.502 17.124 0 54.33 44.043 98.372 98.372 98.372s98.372-44.043 98.372-98.372c0-6.052-0.546-11.975-1.593-17.725-0.319-1.822-0.865-4.212-1.445-6.567h63.932v68.949zM539.034 478.379v102.673l136.533 0.375 71.68-103.049zM858.249 378.88c-42.623 0-77.175-34.553-77.175-77.175s34.553-77.175 77.175-77.175c42.623 0 77.175 34.553 77.175 77.175s-34.553 77.175-77.175 77.175zM858.249 278.699c-12.687 0-22.972 10.285-22.972 22.972s10.285 22.972 22.972 22.972c12.687 0 22.972-10.285 22.972-22.972 0-0.020 0-0.044 0-0.068 0-12.687-10.285-22.972-22.972-22.972 0 0 0 0 0 0zM224.939 383.113c-42.623 0-77.175-34.553-77.175-77.175s34.553-77.175 77.175-77.175c42.623 0 77.175 34.553 77.175 77.175s-34.553 77.175-77.175 77.175zM224.939 282.932c-12.687 0-22.972 10.285-22.972 22.972s10.285 22.972 22.972 22.972c12.687 0 22.972-10.285 22.972-22.972s-10.285-22.972-22.972-22.972z" />
<glyph unicode="&#xe915;" glyph-name="mini-van-2" d="M995.84 308.122v59.051c0 78.097-200.021 78.097-200.021 78.097l-120.013 146.773h-221.833l-15.94 53.077c-0.191 11.164-9.286 20.141-20.477 20.141-0.109 0-0.218-0.001-0.326-0.003h-350.533c-0.113 0.002-0.247 0.002-0.381 0.002-15.99 0-28.991-12.8-29.314-28.712v-148.852s0.307 0 0.717 0.239v-166.434h-30.481v-81.92h121.958c-0.58 2.355-1.126 4.71-1.536 7.134-0.945 5.106-1.485 10.981-1.485 16.982 0 54.047 43.814 97.86 97.86 97.86s97.86-43.814 97.86-97.86c0-6.001-0.54-11.877-1.575-17.58-0.32-1.826-0.866-4.181-1.446-6.537h444.621c-0.58 2.355-1.126 4.71-1.536 7.134-0.945 5.106-1.485 10.981-1.485 16.982 0 54.047 43.814 97.86 97.86 97.86s97.86-43.814 97.86-97.86c0-6.001-0.54-11.877-1.575-17.58-0.32-1.826-0.866-4.181-1.446-6.537h63.59v68.54zM538.897 442.164v102.161l135.714 0.341 71.441-102.4zM223.573 341.709c-42.415 0-76.8-34.385-76.8-76.8s34.385-76.8 76.8-76.8c42.415 0 76.8 34.385 76.8 76.8s-34.385 76.8-76.8 76.8zM223.573 242.074c-12.63 0-22.869 10.239-22.869 22.869s10.239 22.869 22.869 22.869c12.63 0 22.869-10.239 22.869-22.869 0-0.010 0-0.022 0-0.034 0-12.63-10.239-22.869-22.869-22.869 0 0 0 0 0 0zM857.873 341.709c-42.415 0-76.8-34.385-76.8-76.8s34.385-76.8 76.8-76.8c42.415 0 76.8 34.385 76.8 76.8s-34.385 76.8-76.8 76.8zM857.873 242.074c-12.63 0-22.869 10.239-22.869 22.869s10.239 22.869 22.869 22.869c12.63 0 22.869-10.239 22.869-22.869 0-0.010 0-0.022 0-0.034 0-12.63-10.239-22.869-22.869-22.869 0 0 0 0 0 0z" />
<glyph unicode="&#xe916;" glyph-name="motorcycle" d="M21.231 697.31h229.137c5.505 0 9.967-4.462 9.967-9.967v-251.665c0-5.505-4.462-9.967-9.967-9.967h-229.137c-5.505 0-9.967 4.462-9.967 9.967v251.665c0 5.505 4.462 9.967 9.967 9.967zM208.657 467.252h279.893s84.139 63.351 147.285 53.999c29.286-4.335 88.371-39.287 24.542-126.293h-526.575l-80.998 46.524zM4.164 245.999h382.498v-42.701h-382.498v42.701zM347.546 366.968h355.806l1.775-44.442-85.402-176.162-202.82 1.809-69.086 90.999-0.273 127.795zM874.394 86.972c-82.72 0-149.777 67.057-149.777 149.777s67.057 149.777 149.777 149.777c82.72 0 149.777-67.057 149.777-149.777-0.116-82.673-67.104-149.661-149.766-149.777zM874.394 336.76c-55.216 0-99.977-44.761-99.977-99.977s44.761-99.977 99.977-99.977c55.216 0 99.977 44.761 99.977 99.977-0.078 55.177-44.796 99.884-99.971 99.942zM186.47 63.249c-82.72 0-149.777 67.057-149.777 149.777s67.057 149.777 149.777 149.777c82.72 0 149.777-67.057 149.777-149.777-0.116-82.673-67.104-149.661-149.766-149.777zM186.47 313.003c-55.216 0-99.977-44.761-99.977-99.977s44.761-99.977 99.977-99.977c55.216 0 99.977 44.761 99.977 99.977-0.058 55.192-44.784 99.918-99.971 99.977zM891.051 491.52c0 0 0 0 0 0 0-26.5-21.463-47.987-47.954-48.026-26.525 0-56.051 21.504-56.051 48.026s29.525 48.026 56.047 48.026c26.494-0.039 47.957-21.526 47.957-48.026zM669.423 560.709l-19.285 34.816-76.459-31.607-8.158 19.763 94.071 38.878 28.501-51.507-18.671-10.342zM661.003 556.731l27.762 17.408 204.381-325.938-27.762-17.408-204.381 325.938z" />
<glyph unicode="&#xe917;" glyph-name="lock" d="M757.965-73.352h-491.93c-94.832 0.117-171.677 76.961-171.793 171.782v241.436c0.117 94.832 76.961 171.677 171.782 171.793h491.941c94.832-0.117 171.677-76.961 171.793-171.782v-241.436c-0.117-94.832-76.961-171.677-171.782-171.793zM266.035 462.541c-67.865 0-122.88-55.015-122.88-122.88v-241.425c0-67.865 55.015-122.88 122.88-122.88h491.93c67.865 0 122.88 55.015 122.88 122.88v241.63c0 67.865-55.015 122.88-122.88 122.88zM767.727 472.815c-13.554 0-24.542 10.988-24.542 24.542v195.823c-0.194 101.719-82.601 184.126-184.301 184.32h-93.646c-101.719-0.194-184.126-82.601-184.32-184.301v-195.842c0-13.554-10.988-24.542-24.542-24.542s-24.542 10.988-24.542 24.542v195.823c0.155 128.864 104.549 233.293 233.384 233.506h93.545c128.926-0.136 233.404-104.614 233.54-233.527v-195.836c-0.019-13.539-11-24.508-24.542-24.508-0.012 0-0.024 0-0.036 0z" />
<glyph unicode="&#xe918;" glyph-name="ok" d="M258.833 737.28c-190.566 0-257.741-134.349-257.741-310.135 0-177.493 58.914-311.125 256.819-311.125 188.689 0 253.133 134.383 253.133 311.125 0 178.551-58.914 310.135-252.211 310.135zM257.911 168.414c-141.858 0.034-186.846 101.239-186.846 258.731s44.988 257.741 186.846 257.741c140.834 0 183.194-99.43 183.194-257.741 0-152.815-39.595-258.697-183.194-258.697zM716.39 444.621l274.295 282.59h-73.626l-264.192-270.643v270.643h-67.209v-595.558h67.209v287.198l281.668-287.198h88.371l-306.517 312.969z" />
<glyph unicode="&#xe919;" glyph-name="fast" d="M1009.667 303.482h-64.508c-7.915 0-14.332 6.416-14.332 14.332s6.416 14.332 14.332 14.332h50.178v127.341c0 7.915 6.416 14.332 14.332 14.332s14.332-6.416 14.332-14.332v-141.604c0-0.020 0-0.044 0-0.068 0-7.915-6.416-14.332-14.332-14.332 0 0 0 0 0 0zM699.608 301.737h-127.273c-7.915 0-14.332 6.416-14.332 14.332s6.416 14.332 14.332 14.332h127.273c7.915 0 14.332-6.416 14.332-14.332s-6.416-14.332-14.332-14.332zM328.563 300.061h-51.956c-7.864 0.019-14.239 6.37-14.298 14.223v141.61c0 7.915 6.416 14.332 14.332 14.332s14.332-6.416 14.332-14.332v-127.273h37.625c7.915 0 14.332-6.416 14.332-14.332s-6.416-14.332-14.332-14.332zM447.012 200.87c-51.476 0-93.206 41.729-93.206 93.206s41.729 93.206 93.206 93.206c51.476 0 93.206-41.729 93.206-93.206-0.058-51.452-41.753-93.147-93.201-93.206zM447.012 358.584c-35.628 0-64.508-28.882-64.508-64.508s28.882-64.508 64.508-64.508c35.628 0 64.508 28.882 64.508 64.508-0.097 35.574-28.929 64.382-64.503 64.44zM822.092 200.87c-51.476 0-93.206 41.729-93.206 93.206s41.729 93.206 93.206 93.206c51.476 0 93.206-41.729 93.206-93.206-0.058-51.452-41.753-93.147-93.201-93.206zM822.092 358.584c-35.628 0-64.508-28.882-64.508-64.508s28.882-64.508 64.508-64.508c35.628 0 64.508 28.882 64.508 64.508-0.097 35.574-28.929 64.382-64.503 64.44zM1002.518 445.12h-722.935c-7.915 0-14.332 6.416-14.332 14.332s6.416 14.332 14.332 14.332h722.935c7.915 0 14.332-6.416 14.332-14.332s-6.416-14.332-14.332-14.332zM276.607 451.105c-0.048-0.001-0.105-0.001-0.162-0.001-7.915 0-14.332 6.416-14.332 14.332 0 1.705 0.298 3.339 0.844 4.855l60.441 172.561c2.010 5.645 7.308 9.612 13.532 9.612 0.052 0 0.105 0 0.157-0.001h386.976c4.041-0.047 7.675-1.757 10.255-4.474l157.344-166.648c2.425-2.564 3.916-6.033 3.916-9.85 0-7.924-6.424-14.348-14.348-14.348-4.106 0-7.81 1.726-10.426 4.49l-152.898 162.134h-370.771l-56.984-162.948c-1.979-5.691-7.292-9.704-13.544-9.714zM217.469 530.562h-172.080c-7.915 0-14.332 6.416-14.332 14.332s6.416 14.332 14.332 14.332h172.080c7.915 0 14.332-6.416 14.332-14.332s-6.416-14.332-14.332-14.332zM169.651 449.328h-76.48c-7.915 0-14.332 6.416-14.332 14.332s6.416 14.332 14.332 14.332h76.48c7.915 0 14.332-6.416 14.332-14.332s-6.416-14.332-14.332-14.332zM157.714 375.31h-143.383c-7.915 0-14.332 6.416-14.332 14.332s6.416 14.332 14.332 14.332h143.383c7.915 0 14.332-6.416 14.332-14.332s-6.416-14.332-14.332-14.332z" />
<glyph unicode="&#xe91a;" glyph-name="calendar" d="M859.981-48.928h-696.167c-90.397 0.097-163.658 73.323-163.814 163.696v514.928c0.097 90.433 73.381 163.716 163.805 163.814h696.177c90.433-0.097 163.716-73.381 163.814-163.805v-514.922c-0.156-90.389-73.417-163.614-163.805-163.711zM163.814 746.706c-64.592-0.078-116.932-52.418-117.010-117.003v-514.92c0.078-64.592 52.418-116.932 117.003-117.010h696.175c64.592 0.078 116.932 52.418 117.010 117.003v514.92c-0.078 64.592-52.418 116.932-117.003 117.010zM991.69 480.889h-959.379c-12.924 0-23.402 10.478-23.402 23.402s10.478 23.402 23.402 23.402h959.379c12.924 0 23.402-10.478 23.402-23.402s-10.478-23.402-23.402-23.402zM257.421 632.985c-12.924 0-23.402 10.478-23.402 23.402v222.474c0 12.924 10.478 23.402 23.402 23.402s23.402-10.478 23.402-23.402v-222.474c0-12.924-10.478-23.402-23.402-23.402zM766.373 632.985c-12.924 0-23.402 10.478-23.402 23.402v222.474c0 12.924 10.478 23.402 23.402 23.402s23.402-10.478 23.402-23.402v-222.474c0-12.924-10.478-23.402-23.402-23.402zM266.399-40.156c-12.924 0-23.402 10.478-23.402 23.402v515.29c0 12.924 10.478 23.402 23.402 23.402s23.402-10.478 23.402-23.402v-515.29c0-12.924-10.478-23.402-23.402-23.402zM517.962-45.639c-12.924 0-23.402 10.478-23.402 23.402v515.187c0 12.924 10.478 23.402 23.402 23.402s23.402-10.478 23.402-23.402v-515.221c-0.019-12.91-10.49-23.368-23.402-23.368 0 0 0 0 0 0zM769.525-39.916c-12.924 0-23.402 10.478-23.402 23.402v515.050c0 12.934 10.485 23.419 23.419 23.419s23.419-10.485 23.419-23.419v-515.050c0 0 0 0 0 0 0-12.924-10.478-23.402-23.402-23.402-0.012 0-0.024 0-0.036 0zM1000.598 295.626h-965.307c-12.924 0-23.402 10.478-23.402 23.402s10.478 23.402 23.402 23.402h965.307c12.924 0 23.402-10.478 23.402-23.402s-10.478-23.402-23.402-23.402zM994.74 124.001h-965.273c-12.924 0-23.402 10.478-23.402 23.402s10.478 23.402 23.402 23.402h965.273c12.924 0 23.402-10.478 23.402-23.402s-10.478-23.402-23.402-23.402z" />
<glyph unicode="&#xe91b;" glyph-name="route" d="M183.808 43.725c-0.010 0-0.022 0-0.034 0-4.81 0-9.25 1.59-12.821 4.272-26.339 19.956-49.301 42.354-69.222 67.288-65.549 81.733-101.731 187.546-97.054 283.734 0.19 11.692 9.713 21.098 21.433 21.098 11.839 0 21.436-9.597 21.436-21.436 0-0.59-0.024-1.174-0.071-1.752-4.057-85.974 28.506-180.831 87.113-254.115 14.934-18.64 31.069-35.143 48.683-49.942 18.688 14.798 34.823 31.301 49.224 49.254 59.14 73.767 91.771 168.794 87.641 254.844-0.042 0.502-0.066 1.086-0.066 1.676 0 11.839 9.597 21.436 21.436 21.436 11.72 0 21.243-9.405 21.433-21.080 4.54-96.206-31.539-201.985-96.495-283.017-20.505-25.677-43.455-48.053-68.882-67.333-4.471-3.337-8.911-4.927-13.721-4.927-0.012 0-0.024 0-0.036 0zM36.591 441.378c-11.801 0.075-21.338 9.658-21.338 21.469 0 2.141 0.313 4.209 0.897 6.16 8.437 29.482 21.895 55.268 39.538 77.595 29.689 37.869 75.232 62.876 126.681 65.056 0.669 0.032 1.044 0.043 1.422 0.043s0.754-0.011 1.126-0.034c51.758-2.178 97.314-27.188 127.088-65.163 17.551-22.101 31.024-47.732 39.174-75.633 0.68-2.887 0.845-4.398 0.845-5.947 0-11.839-9.597-21.436-21.436-21.436-9.041 0-16.774 5.597-19.925 13.515-6.886 23.95-17.693 44.663-31.847 62.616-22.153 28.285-56.065 47.085-94.424 49.064-39.101-1.881-73.141-20.702-95.435-49.165-14.158-17.952-25.015-38.795-31.54-61.473-3.014-10.22-11.167-16.63-20.823-16.666zM183.808 354.373c-42.397 0-76.766 34.369-76.766 76.766s34.369 76.766 76.766 76.766c42.397 0 76.766-34.369 76.766-76.766-0.039-42.381-34.385-76.727-76.762-76.766zM183.808 465.033c-18.719 0-33.894-15.175-33.894-33.894s15.175-33.894 33.894-33.894c18.719 0 33.894 15.175 33.894 33.894 0 18.726-15.171 33.909-33.893 33.929zM840.192 241.733c-0.010 0-0.022 0-0.034 0-4.81 0-9.25 1.59-12.821 4.272-26.325 19.948-49.275 42.334-69.189 67.254-65.446 81.801-101.628 187.614-97.088 283.768 0.19 11.692 9.713 21.098 21.433 21.098 11.839 0 21.436-9.597 21.436-21.436 0-0.59-0.024-1.174-0.071-1.752-4.057-85.974 28.506-180.831 87.113-254.115 14.932-18.642 31.067-35.145 48.683-49.942 18.69 14.797 34.825 31.3 49.225 49.255 59.14 73.801 91.703 168.828 87.641 254.878-0.042 0.502-0.066 1.086-0.066 1.676 0 11.839 9.597 21.436 21.436 21.436 11.72 0 21.243-9.405 21.433-21.080 4.54-96.206-31.539-201.985-96.495-283.017-20.507-25.674-43.457-48.050-68.882-67.333-4.477-3.356-8.929-4.959-13.755-4.961zM692.907 639.386c-2.155 0.003-4.234 0.327-6.192 0.927-8.772 2.687-15.15 10.848-15.15 20.499 0 2.144 0.315 4.215 0.901 6.169 8.458 29.486 21.937 55.271 39.604 77.591 29.691 37.872 75.234 62.88 126.683 65.059 0.669 0.032 1.044 0.043 1.422 0.043s0.754-0.011 1.126-0.034c51.758-2.178 97.314-27.188 127.088-65.163 17.511-22.095 30.949-47.715 39.073-75.6 0.679-2.886 0.843-4.397 0.843-5.946 0-11.839-9.597-21.436-21.436-21.436-9.041 0-16.774 5.597-19.925 13.515-6.928 23.956-17.78 44.668-31.979 62.609-22.154 28.295-56.068 47.096-94.429 49.071-38.984-1.975-72.898-20.775-95.127-49.165-14.224-17.946-25.138-38.787-31.709-61.474-3.013-10.208-11.149-16.614-20.789-16.666zM840.192 552.38c-42.397 0-76.766 34.369-76.766 76.766s34.369 76.766 76.766 76.766c42.397 0 76.766-34.369 76.766-76.766-0.058-42.373-34.393-76.708-76.76-76.766zM840.192 663.040c-18.719 0-33.894-15.175-33.894-33.894s15.175-33.894 33.894-33.894c18.719 0 33.894 15.175 33.894 33.894 0 18.726-15.171 33.909-33.893 33.929zM399.599 210.705c-11.794 0.058-21.333 9.633-21.333 21.435 0 9.884 6.69 18.206 15.789 20.684 82.548 21.505 89.716 85.812 91.73 189.134 1.638 84.992 3.413 181.35 94.583 225.28 2.569 1.176 5.573 1.861 8.736 1.861 11.839 0 21.436-9.597 21.436-21.436 0-8.234-4.642-15.383-11.452-18.974-67.462-32.517-68.93-107.815-70.466-187.551-1.809-93.082-3.857-198.554-123.631-229.751-1.612-0.434-3.462-0.683-5.371-0.683-0.008 0-0.015 0-0.023 0z" />
<glyph unicode="&#xe91c;" glyph-name="pin-1" d="M512-82.841c-0.010 0-0.022 0-0.034 0-8.374 0-16.101 2.769-22.316 7.442-47.294 35.789-88.517 75.961-124.283 120.687-117.695 146.918-182.48 337.007-174.22 509.653 0.937 19.831 17.244 35.555 37.222 35.555 20.579 0 37.262-16.683 37.262-37.262 0-0.6-0.014-1.197-0.042-1.791-7.301-155.018 51.374-326.265 157.016-458.020 27.097-33.937 56.405-63.959 88.427-90.856 34.015 26.862 63.367 56.841 89.538 89.479 106.604 133.029 165.279 304.276 157.975 459.378-0.025 0.509-0.039 1.106-0.039 1.707 0 20.579 16.683 37.262 37.262 37.262 19.979 0 36.285-15.724 37.219-35.471 8.161-172.764-56.624-362.785-173.292-508.329-36.827-46.099-78.050-86.271-123.721-120.88-7.821-5.811-15.514-8.554-23.848-8.554-0.044 0-0.089 0-0.133 0zM247.194 632.525c-20.59 0.019-37.274 16.715-37.274 37.308 0 3.735 0.549 7.341 1.57 10.743 15.178 52.825 39.361 99.009 71.049 138.972 57.395 71.367 136.175 111.815 227.584 116.559q1.877 0 3.755 0c91.409-4.608 170.325-45.193 228.25-117.385 30.865-38.937 54.952-84.844 69.54-134.803 1.511-5.713 1.973-9.032 1.973-12.459 0-20.586-16.688-37.274-37.274-37.274-16.491 0-30.48 10.709-35.393 25.552-12.415 43.254-31.935 80.663-57.5 113.081-43.269 53.924-102.695 84.814-171.439 88.774-68.745-3.959-128.171-34.85-171.964-89.498-25.205-31.908-44.815-69.554-56.576-110.52-5.252-17.879-19.471-29.041-36.299-29.051zM512 476.024c-75.556 0-136.806 61.25-136.806 136.806s61.25 136.806 136.806 136.806c75.556 0 136.806-61.25 136.806-136.806-0.097-75.517-61.289-136.709-136.797-136.806zM512 675.124c-34.404 0-62.293-27.89-62.293-62.293s27.89-62.293 62.293-62.293c34.404 0 62.293 27.89 62.293 62.293-0.039 34.388-27.905 62.254-62.29 62.293z" />
<glyph unicode="&#xe91d;" glyph-name="rating-filling" d="M61.44 501.351c-0.013 0-0.028 0-0.042 0-7.197 0-13.499-3.834-16.974-9.571l-32.715-54.872c-1.742-2.882-2.773-6.364-2.773-10.086s1.031-7.204 2.823-10.175l32.616-55.003c3.525-5.826 9.827-9.66 17.024-9.66 0.015 0 0.030 0 0.045 0h66.387c0.013 0 0.028 0 0.042 0 7.197 0 13.499 3.834 16.974 9.571l32.647 54.872c1.799 2.918 2.866 6.455 2.866 10.24s-1.066 7.322-2.914 10.325l-32.617 54.869c-3.525 5.826-9.827 9.66-17.024 9.66-0.015 0-0.030 0-0.045 0zM127.829 345.6h-66.389c-0.006 0-0.013 0-0.021 0-9.532 0-17.878 5.081-22.476 12.683l-32.731 55.072c-2.311 3.818-3.679 8.431-3.679 13.363s1.368 9.545 3.744 13.48l32.6 54.735c4.664 7.719 13.009 12.8 22.542 12.8 0.007 0 0.014 0 0.022 0h66.388c9.461-0.069 17.725-5.133 22.291-12.683l32.731-55.072c2.311-3.818 3.679-8.431 3.679-13.363s-1.368-9.545-3.744-13.48l-32.6-54.735c-4.632-7.667-12.896-12.731-22.347-12.8zM61.44 494.934c-4.848-0.014-9.089-2.598-11.435-6.46l-32.938-54.98c-1.18-1.951-1.878-4.307-1.878-6.827s0.698-4.876 1.912-6.887l32.632-54.895c2.39-3.914 6.638-6.487 11.487-6.487 0.077 0 0.155 0.001 0.232 0.002h66.378c4.848 0.014 9.089 2.598 11.435 6.46l32.699 54.98c1.18 1.951 1.878 4.307 1.878 6.827s-0.698 4.876-1.912 6.887l-32.632 54.895c-2.387 3.908-6.627 6.479-11.468 6.485zM270.063 501.351c-0.013 0-0.028 0-0.042 0-7.197 0-13.499-3.834-16.974-9.571l-32.613-54.872c-1.742-2.882-2.773-6.364-2.773-10.086s1.031-7.204 2.823-10.175l32.616-54.866c3.525-5.826 9.827-9.66 17.024-9.66 0.015 0 0.030 0 0.045 0h66.387c0.013 0 0.028 0 0.042 0 7.197 0 13.499 3.834 16.974 9.571l32.715 55.043c1.742 2.882 2.773 6.364 2.773 10.086s-1.031 7.204-2.823 10.175l-32.616 54.866c-3.525 5.826-9.827 9.66-17.024 9.66-0.015 0-0.030 0-0.045 0zM336.555 345.6h-66.492c-9.501 0.031-17.81 5.104-22.394 12.683l-32.629 55.038c-2.311 3.818-3.679 8.431-3.679 13.363s1.368 9.545 3.744 13.48l32.498 54.769c4.65 7.696 12.959 12.769 22.455 12.8h66.496c9.495-0.023 17.802-5.083 22.394-12.649l32.731-55.071c2.311-3.818 3.679-8.431 3.679-13.363s-1.368-9.545-3.744-13.48l-32.6-54.769c-4.65-7.696-12.959-12.769-22.455-12.8zM270.063 494.934c-4.848-0.014-9.089-2.598-11.435-6.46l-32.699-54.98c-1.18-1.951-1.878-4.307-1.878-6.827s0.698-4.876 1.912-6.887l32.632-54.895c2.387-3.908 6.627-6.479 11.468-6.485h66.493c4.848 0.014 9.089 2.598 11.435 6.46l32.699 55.014c1.18 1.951 1.878 4.307 1.878 6.827s-0.698 4.876-1.912 6.887l-32.496 54.827c-2.386 3.933-6.644 6.52-11.507 6.52-0.035 0-0.069 0-0.104 0zM545.212 345.6h-66.492c-9.495 0.023-17.802 5.083-22.394 12.649l-32.731 55.071c-2.311 3.818-3.679 8.431-3.679 13.363s1.368 9.545 3.744 13.48l32.6 54.838c4.65 7.696 12.959 12.769 22.455 12.8h66.496c9.495-0.023 17.802-5.083 22.394-12.649l32.731-55.071c2.311-3.818 3.679-8.431 3.679-13.363s-1.368-9.545-3.744-13.48l-32.6-54.838c-4.65-7.696-12.959-12.769-22.455-12.8zM478.72 494.934c-4.848-0.014-9.089-2.598-11.435-6.46l-32.699-54.98c-1.18-1.951-1.878-4.307-1.878-6.827s0.698-4.876 1.912-6.887l32.632-54.895c2.38-3.922 6.621-6.505 11.467-6.519h66.494c4.848 0.014 9.089 2.598 11.435 6.46l32.699 55.014c1.18 1.951 1.878 4.307 1.878 6.827s-0.698 4.876-1.912 6.887l-32.632 54.895c-2.38 3.922-6.621 6.505-11.467 6.519zM753.971 345.6h-66.492c-9.495 0.023-17.802 5.083-22.394 12.649l-32.731 55.071c-2.311 3.818-3.679 8.431-3.679 13.363s1.368 9.545 3.744 13.48l32.6 54.838c4.65 7.696 12.959 12.769 22.455 12.8h66.496c9.493-0.030 17.798-5.088 22.394-12.649l32.731-55.071c2.311-3.818 3.679-8.431 3.679-13.363s-1.368-9.545-3.744-13.48l-32.6-54.838c-4.65-7.696-12.959-12.769-22.455-12.8zM687.479 494.934c-4.848-0.014-9.089-2.598-11.435-6.46l-32.699-54.98c-1.18-1.951-1.878-4.307-1.878-6.827s0.698-4.876 1.912-6.887l32.632-54.895c2.38-3.922 6.621-6.505 11.467-6.519h66.494c4.848 0.014 9.089 2.598 11.435 6.46l32.699 55.014c1.18 1.951 1.878 4.307 1.878 6.827s-0.698 4.876-1.912 6.887l-32.632 54.895c-2.38 3.922-6.621 6.505-11.467 6.519zM962.56 345.6h-66.389c-9.461 0.069-17.725 5.133-22.291 12.683l-32.731 55.072c-2.311 3.818-3.679 8.431-3.679 13.363s1.368 9.545 3.744 13.48l32.6 54.735c4.65 7.696 12.959 12.769 22.455 12.8h66.291c9.495-0.023 17.802-5.083 22.394-12.649l32.731-55.071c2.311-3.818 3.679-8.431 3.679-13.363s-1.368-9.545-3.744-13.48l-32.498-54.769c-4.664-7.719-13.009-12.8-22.542-12.8-0.007 0-0.014 0-0.022 0zM896.171 494.934c-4.848-0.014-9.089-2.598-11.435-6.46l-32.699-54.98c-1.18-1.951-1.878-4.307-1.878-6.827s0.698-4.876 1.912-6.887l32.632-54.895c2.38-3.922 6.621-6.505 11.467-6.519h66.391c4.848 0.014 9.089 2.598 11.435 6.46l32.938 55.014c1.18 1.951 1.878 4.307 1.878 6.827s-0.698 4.876-1.912 6.887l-32.632 54.895c-2.39 3.914-6.638 6.487-11.487 6.487-0.077 0-0.155-0.001-0.232-0.002z" />
<glyph unicode="&#xe91e;" glyph-name="boss" d="M920.4 165.867l-3.6 1c-53 14.2-70.8 27.8-94.4 36.8-83.6 31.8-105.4 54.8-111 65.6-0.2 0.4-0.4 0.8-0.6 1.2l-0.6 73c44.8 59.8 76.6 134.6 76.6 212 0 0 30.2 128.6-42 249.8v0.6c0 0-0.2 0-0.2 0-15.6 26.2-36 52-62.6 76-27.6 25.2-96.2 56.8-178.8 56.8-56.6 0-119.8-14.8-181-56.8-118.8-81.4-106.8-286.8-106.8-286.8s8.4-2 23.2-4c-1-11.6-1.6-23.2-1.6-35.4 0-77.4 32-152 76.6-212l-0.6-73c-0.2-0.4-0.4-0.8-0.6-1.2-5.6-10.8-27.4-33.8-111-65.6-23.6-9-41.4-22.6-94.4-36.8l-3.6-1c-48.2-16-80.6-60.6-80.6-111v-140.4h978.2v140.2c0 50.4-32.4 95.2-80.6 111zM724.6 752.267c11.8-26.8 19.6-55.8 23.4-86.4 0.6-4.8 1-9.4 1.4-14-6.8 12.8-14.4 23.8-22.8 33.4-9.4 10.6-19.8 19.2-31.2 26 8.6 21 19.6 33.4 29.2 41zM266.4 701.667c6.2 31.4 15.4 59.2 27.4 82.6 13.8 27 31.6 48.2 52.4 62.4 47.8 32.8 100.6 49.4 157 49.4 72.6 0 130.8-28 150.4-45.8 19.8-18 36.8-38 50.8-60-17-11.4-35.6-30.8-49-64.4-7 1.2-14.2 1.8-21.6 1.8-31.8 0-66.2-10.8-105-33-93.4-53.4-179.6-64.6-235.6-64.6-13.4 0-25.2 0.6-35 1.6 0.8 18.8 3 43.4 8.2 70zM412.4-42.733h-346.8v97.6c0 31.8 20.4 60 50.6 70.4l2.4 0.6c40 10.8 62 21.2 79.6 29.8 6.8 3.2 12.8 6.2 18.4 8.4 31.6 12 70.8 28.6 99.8 49.6l90.6-47.4 15.6 13.2 11-55.2-21.2-167zM347.8 245.467c1 1.6 1.8 3 2.6 4.6 0.8 1.4 1.4 2.8 1.6 3.4l3.6 7.8v9l0.2 24.6c23-22.8 47.4-41.6 71.6-55.6l-26-22-53.6 28.2zM512-42.733h-56.6l19.2 149.4h74.8l21.6-149.4h-59zM460 211.067l10.4 8.8c14.6-4.8 28.6-7.4 41.6-7.4 13.6 0 28.6 2.8 44 8.2l8.4-7.2-12.8-64h-79.4l-12.2 61.6zM512 255.067c-17.6 0-41 8-65.4 22.4-27.4 16.4-54.8 39.6-79.4 67.6-55.8 63.6-87.8 140.2-87.8 210.6 0 11 0.6 21.6 1.6 32 3.8-0.2 7.8-0.2 12-0.2 62.4 0 156 12.6 256.8 70.2 34 19.4 61.4 27.2 83.8 27.2 53.8 0 78-45.6 92.6-86.8 5-14.2 11.2-23.8 17.8-30.6 0.2-4 0.2-8 0.2-12 0-70.2-32-147-87.8-210.6-24.4-28-52-51.2-79.4-67.6-24.2-14.2-47.4-22.2-65-22.2zM677 244.067l-51.2-26.8-27.4 23.2c23.6 13.8 47.2 32.4 69.6 54.4l0.2-24.6v-9l3.6-7.8c0.4-0.6 0.8-2 1.6-3.4 1.2-2 2.4-4 3.6-6zM812.2-42.733h-128v42.6h128v-42.6zM958.4-42.733h-103.4v85.4h-64c0 11.8-9.6 21.4-21.4 21.4h-42.6c-11.8 0-21.4-9.6-21.4-21.4h-64v-85.4h-27.6l-24 166.2 11.6 58.2 18.4-15.6 88.6 46.4c28.8-20.6 67.4-36.8 98.4-48.6 5.8-2.2 11.6-5 18.4-8.2 17.8-8.4 39.8-19 79.6-29.8l2.4-0.6c30.4-10.4 50.6-38.4 50.6-70.4v-97.6z" />
<glyph unicode="&#xe924;" glyph-name="rating" d="M125.918 345.191h-66.799c-9.552 0.016-17.912 5.105-22.53 12.717l-32.868 55.345c-2.322 3.838-3.697 8.474-3.697 13.431s1.374 9.594 3.763 13.549l32.77 55.11c4.685 7.729 13.044 12.818 22.594 12.834h66.767c9.552-0.016 17.912-5.105 22.53-12.717l32.902-55.345c2.322-3.838 3.697-8.474 3.697-13.431s-1.374-9.594-3.763-13.549l-32.77-55.11c-4.685-7.729-13.044-12.818-22.594-12.834zM59.119 495.377c-4.867-0.046-9.121-2.632-11.503-6.495l-32.87-55.389c-1.173-1.952-1.867-4.308-1.867-6.827s0.694-4.874 1.901-6.888l32.802-55.167c2.416-3.921 6.67-6.507 11.53-6.554h66.806c4.867 0.046 9.121 2.632 11.503 6.495l32.836 55.287c1.173 1.952 1.867 4.308 1.867 6.827s-0.694 4.874-1.901 6.888l-32.802 55.167c-2.416 3.921-6.67 6.507-11.53 6.554zM335.667 345.191h-66.799c-9.552 0.016-17.912 5.105-22.53 12.717l-32.902 55.345c-2.322 3.838-3.697 8.474-3.697 13.431s1.374 9.594 3.763 13.549l32.77 55.11c4.685 7.729 13.044 12.818 22.594 12.834h66.801c9.552-0.016 17.912-5.105 22.53-12.717l32.902-55.345c2.322-3.838 3.697-8.474 3.697-13.431s-1.374-9.594-3.763-13.549l-32.634-55.11c-4.692-7.741-13.071-12.834-22.64-12.834-0.033 0-0.066 0-0.098 0zM268.868 495.377c-4.867-0.046-9.121-2.632-11.503-6.495l-32.836-55.389c-1.173-1.952-1.867-4.308-1.867-6.827s0.694-4.874 1.901-6.888l32.802-55.167c2.416-3.921 6.67-6.507 11.53-6.554h66.772c4.867 0.046 9.121 2.632 11.503 6.495l32.87 55.287c1.173 1.952 1.867 4.308 1.867 6.827s-0.694 4.874-1.901 6.888l-32.802 55.167c-2.416 3.921-6.67 6.507-11.53 6.554zM545.382 345.191h-66.833c-9.552 0.016-17.912 5.105-22.53 12.717l-32.766 55.345c-2.322 3.838-3.697 8.474-3.697 13.431s1.374 9.594 3.763 13.549l32.77 55.11c4.685 7.729 13.044 12.818 22.594 12.834h66.801c9.552-0.016 17.912-5.105 22.53-12.717l32.732-55.379c2.322-3.838 3.697-8.474 3.697-13.431s-1.374-9.594-3.763-13.549l-32.77-55.11c-4.68-7.696-13.008-12.766-22.523-12.8zM478.583 495.377c-4.867-0.046-9.121-2.632-11.503-6.495l-32.87-55.389c-1.173-1.952-1.867-4.308-1.867-6.827s0.694-4.874 1.901-6.888l32.768-55.167c2.416-3.921 6.67-6.507 11.53-6.554h66.806c4.867 0.046 9.121 2.632 11.503 6.495l32.87 55.287c1.173 1.952 1.867 4.308 1.867 6.827s-0.694 4.874-1.901 6.888l-32.768 55.167c-2.416 3.921-6.67 6.507-11.53 6.554zM755.166 345.191h-66.799c-9.539 0.029-17.883 5.115-22.496 12.717l-32.902 55.345c-2.322 3.838-3.697 8.474-3.697 13.431s1.374 9.594 3.763 13.549l32.77 55.11c4.679 7.719 13.023 12.805 22.558 12.834h66.803c9.552-0.016 17.912-5.105 22.53-12.717l32.868-55.345c2.322-3.838 3.697-8.474 3.697-13.431s-1.374-9.594-3.763-13.549l-32.77-55.11c-4.679-7.719-13.023-12.805-22.558-12.834zM688.367 495.377c-4.867-0.046-9.121-2.632-11.503-6.495l-32.87-55.389c-1.173-1.952-1.867-4.308-1.867-6.827s0.694-4.874 1.901-6.888l32.802-55.167c2.416-3.921 6.67-6.507 11.53-6.554h66.806c4.867 0.046 9.121 2.632 11.503 6.495l32.836 55.287c1.173 1.952 1.867 4.308 1.867 6.827s-0.694 4.874-1.901 6.888l-32.802 55.167c-2.416 3.921-6.67 6.507-11.53 6.554zM964.881 345.191h-66.799c-9.552 0.016-17.912 5.105-22.53 12.717l-32.902 55.345c-2.322 3.838-3.697 8.474-3.697 13.431s1.374 9.594 3.763 13.549l32.77 55.11c4.685 7.729 13.044 12.818 22.594 12.834h66.801c9.552-0.016 17.912-5.105 22.53-12.717l32.902-55.345c2.322-3.838 3.697-8.474 3.697-13.431s-1.374-9.594-3.763-13.549l-32.77-55.11c-4.685-7.729-13.044-12.818-22.594-12.834zM898.082 495.377c-4.867-0.046-9.121-2.632-11.503-6.495l-32.836-55.389c-1.173-1.952-1.867-4.308-1.867-6.827s0.694-4.874 1.901-6.888l32.802-55.167c2.416-3.921 6.67-6.507 11.53-6.554h66.806c4.867 0.046 9.121 2.632 11.503 6.495l32.836 55.287c1.173 1.952 1.867 4.308 1.867 6.827s-0.694 4.874-1.901 6.888l-32.768 55.167c-2.416 3.921-6.67 6.507-11.53 6.554z" />
<glyph unicode="&#xe925;" glyph-name="balance" d="M800.126-85.334h-576.251c-78.090 0.096-141.368 63.375-141.464 141.456v413.538c0.096 78.090 63.375 141.368 141.456 141.464h576.26c78.090-0.096 141.368-63.375 141.464-141.456v-413.538c-0.096-78.090-63.375-141.368-141.456-141.464zM223.876 572.313c-56.662-0.078-102.574-45.99-102.652-102.645v-413.536c0.078-56.662 45.99-102.574 102.645-102.652h576.258c56.662 0.078 102.574 45.99 102.652 102.645v413.536c-0.078 56.662-45.99 102.574-102.645 102.652zM686.2 20.715h-566.845c-10.708 0-19.389 8.681-19.389 19.389s8.681 19.389 19.389 19.389h566.845c10.708 0 19.389-8.681 19.389-19.389s-8.681-19.389-19.389-19.389zM915.716 23.94h-129.309c-10.708 0-19.389 8.681-19.389 19.389s8.681 19.389 19.389 19.389h129.309c10.708 0 19.389-8.681 19.389-19.389s-8.681-19.389-19.389-19.389zM897.922 176.544h-213.352c-56.262 0-101.871 45.609-101.871 101.871s45.609 101.871 101.871 101.871h213.386c10.708 0 19.389-8.681 19.389-19.389s-8.681-19.389-19.389-19.389h-213.386c-34.19-0.819-61.595-28.73-61.595-63.042s27.404-62.223 61.52-63.040l213.462-0.001c10.708 0 19.389-8.681 19.389-19.389s-8.681-19.389-19.389-19.389zM826.884 576.455c-0.001 0-0.002 0-0.002 0-10.708 0-19.389 8.681-19.389 19.389 0 4.483 1.521 8.61 4.076 11.894l45.979 59.585-254.983 187.884-208.972-270.264c-3.546-5.085-9.365-8.37-15.953-8.37-10.708 0-19.389 8.681-19.389 19.389 0 4.892 1.812 9.36 4.8 12.772l220.701 285.217c3.588 4.555 9.104 7.453 15.297 7.453 4.296 0 8.266-1.395 11.482-3.756l286.169-210.835c4.812-3.576 7.896-9.245 7.896-15.633 0-4.476-1.514-8.598-4.058-11.883l-58.067-75.272c-3.573-4.625-9.121-7.574-15.356-7.574-0.081 0-0.161 0-0.242 0.001zM222.246 580.665c-0.006 0-0.014 0-0.021 0-10.708 0-19.389 8.681-19.389 19.389 0 2.619 0.519 5.116 1.46 7.396l128.514 319.067c2.948 7.183 9.888 12.149 17.987 12.149 3.094 0 6.018-0.724 8.612-2.013l191.405-93.161c6.508-3.221 10.904-9.815 10.904-17.436 0-10.71-8.683-19.393-19.393-19.393-3.089 0-6.010 0.722-8.602 2.008l-172.694 84.163-120.683-300.010c-2.956-7.188-9.905-12.157-18.012-12.157-0.030 0-0.061 0-0.091 0z" />
<glyph unicode="&#xe926;" glyph-name="hand-pointer" d="M640.049-85.334c-97.782 0-235.177 37.079-334.26 213.813-36.36 67.037-76.418 126.678-111.751 179.575-78.746 117.297-140.647 209.978-76.658 274.104 58.512 58.204 138.49 15.304 192.14-25.404v259.862c-0.087 1.685-0.137 3.659-0.137 5.645 0 64.289 52.117 116.407 116.407 116.407s116.407-52.117 116.407-116.407c0-1.986-0.050-3.959-0.148-5.921l0.011-136.673c7.918 1.915 17.009 3.013 26.356 3.013 0.050 0 0.1 0 0.151 0 37.636-0.021 71.023-18.233 91.838-46.323 15.181 6.575 32.679 10.606 51.114 10.647 0.399 0.005 0.853 0.007 1.307 0.007 49.503 0 91.694-31.315 107.84-75.218 10.158 2.242 21.539 3.992 33.33 3.992 64.281 0 116.415-52.011 116.612-116.246v-214.311c-0.215-182.478-148.084-330.348-330.541-330.561zM186.028 556.001c-0.374 0.012-0.813 0.019-1.255 0.019-11.404 0-21.731-4.612-29.217-12.072-31.052-31.155 11.471-98.499 83.369-205.765 35.983-53.718 76.794-114.626 114.148-183.547 68.132-121.474 167.421-185.875 286.978-185.875 152.674 0.176 276.394 123.894 276.569 276.552v214.206c0.002 0.195 0.003 0.424 0.003 0.654 0 34.035-27.592 61.627-61.627 61.627-0.23 0-0.459-0.001-0.689-0.004-0.121 0.002-0.307 0.003-0.492 0.003-13.854 0-26.616-4.675-36.794-12.534-4.342-3.326-10.025-5.392-16.191-5.392-14.889 0-26.965 12.046-27.013 26.924 0.002 0.199 0.003 0.428 0.003 0.659 0 34.035-27.592 61.627-61.627 61.627-0.23 0-0.459-0.001-0.689-0.004-16.734-0.012-32.138-5.843-44.269-15.582-4.404-3.483-10.216-5.651-16.533-5.651-11.32 0-21.015 6.964-25.033 16.842-9.891 24.831-31.734 40.17-57.104 40.17-0.108 0.001-0.237 0.001-0.365 0.001-13.974 0-26.857-4.672-37.172-12.538-4.287-3.211-9.881-5.207-15.942-5.207-14.91 0-26.999 12.080-27.013 26.987v178.515c0.011 0.434 0.017 0.947 0.017 1.46 0 34.396-27.883 62.278-62.278 62.278s-62.278-27.883-62.278-62.278c0-0.514 0.006-1.025 0.019-1.536l-0.001-317.783c0-0.038 0-0.082 0-0.127 0-14.919-12.095-27.013-27.013-27.013-6.963 0-13.311 2.635-18.101 6.961-57.050 51.575-101.387 77.424-132.406 77.424zM827.806 530.802v0zM515.185 478.145c-14.919 0-27.013 12.095-27.013 27.013v189.092c-0.011 0.287-0.017 0.624-0.017 0.962 0 14.919 12.095 27.013 27.013 27.013s27.013-12.095 27.013-27.013c0-0.338-0.006-0.675-0.018-1.010l0.001-188.976c0-0.020 0-0.044 0-0.068 0-14.907-12.075-26.994-26.977-27.013zM650.183 499.509c-14.907 0-26.994 12.075-27.013 26.977v81.041c-0.011 0.287-0.017 0.624-0.017 0.962 0 14.919 12.095 27.013 27.013 27.013s27.013-12.095 27.013-27.013c0-0.338-0.006-0.675-0.018-1.010l0.001-80.991c-0.019-14.892-12.087-26.96-26.977-26.979zM800.828 463.32c-14.919 0-27.013 12.095-27.013 27.013v40.469c-0.011 0.287-0.017 0.624-0.017 0.962 0 14.919 12.095 27.013 27.013 27.013s27.013-12.095 27.013-27.013c0-0.338-0.006-0.675-0.018-1.010l0.001-40.454c-0.019-14.892-12.087-26.96-26.977-26.979z" />
<glyph unicode="&#xe927;" glyph-name="request-freight" d="M291.806 329.455c-96.424 0-174.592 78.168-174.592 174.592s78.168 174.592 174.592 174.592c96.424 0 174.592-78.168 174.592-174.592-0.116-96.378-78.214-174.476-174.581-174.592zM291.806 635.426c-72.529-0.039-131.311-58.844-131.311-131.379 0-72.559 58.82-131.379 131.379-131.379s131.379 58.82 131.379 131.379c-0.097 72.544-58.898 131.321-131.442 131.379zM561.801-12.527c-11.933 0-21.606 9.674-21.606 21.606 0 137.181-111.207 248.388-248.388 248.388s-248.388-111.207-248.388-248.388c0-11.933-9.674-21.606-21.606-21.606s-21.606 9.674-21.606 21.606c0 161.037 130.547 291.584 291.584 291.584s291.584-130.547 291.584-291.584c0 0 0 0 0 0 0-11.921-9.654-21.587-21.57-21.606zM940.919 822.614c21.867-0.019 39.59-17.731 39.629-39.591v-242.146c-0.019-21.879-17.75-39.609-39.627-39.629h-288.429c-10.24 0-12.971 0-52.941-24.405-1.308 13.069-8.265 24.287-18.359 31.309-10.511 7.343-17.208 19.225-17.208 32.672 0 0.018 0 0.037 0 0.055v242.139c0.039 21.828 17.704 39.517 39.519 39.595h337.415zM940.919 865.826h-337.408c-45.724-0.039-82.783-37.086-82.842-82.802v-242.148c0-0.018 0-0.040 0-0.062 0-28.184 14.086-53.078 35.602-68.026l-5.257-55.304c-0.033-0.325-0.052-0.703-0.052-1.085 0-6.277 5.089-11.366 11.366-11.366 2.121 0 4.105 0.581 5.804 1.592s82.755 51.376 84.291 51.376h288.461c45.737 0.039 82.803 37.105 82.842 82.838v242.18c-0.039 45.737-37.105 82.803-82.838 82.842zM914.261 712.909h-284.638c-0.222-0.011-0.482-0.017-0.744-0.017-8.954 0-16.213 7.259-16.213 16.213s7.259 16.213 16.213 16.213c0.262 0 0.522-0.006 0.78-0.018l284.601 0.001c0.222 0.011 0.482 0.017 0.744 0.017 8.954 0 16.213-7.259 16.213-16.213s-7.259-16.213-16.213-16.213c-0.262 0-0.522 0.006-0.78 0.018zM914.261 637.884h-284.638c-0.222-0.011-0.482-0.017-0.744-0.017-8.954 0-16.213 7.259-16.213 16.213s7.259 16.213 16.213 16.213c0.262 0 0.522-0.006 0.78-0.018l284.601 0.001c0.222 0.011 0.482 0.017 0.744 0.017 8.954 0 16.213-7.259 16.213-16.213s-7.259-16.213-16.213-16.213c-0.262 0-0.522 0.006-0.78 0.018zM914.261 567.911h-284.638c-0.222-0.011-0.482-0.017-0.744-0.017-8.954 0-16.213 7.259-16.213 16.213s7.259 16.213 16.213 16.213c0.262 0 0.522-0.006 0.78-0.018l284.601 0.001c0.222 0.011 0.482 0.017 0.744 0.017 8.954 0 16.213-7.259 16.213-16.213s-7.259-16.213-16.213-16.213c-0.262 0-0.522 0.006-0.78 0.018z" />
<glyph unicode="&#xe928;" glyph-name="pin-2" d="M496.503 59.392c-0.010 0-0.022 0-0.034 0-6.278 0-12.070 2.077-16.728 5.581-40.902 31.024-76.55 65.827-107.48 104.563-101.925 127.185-157.938 291.639-151.111 441.075 0.496 15.031 12.8 27.028 27.907 27.028 15.42 0 27.921-12.501 27.921-27.921 0-0.611-0.020-1.217-0.058-1.817-6.413-136.144 45.094-286.638 137.835-402.214 24.599-30.737 51.352-57.88 80.642-82.057 31.163 24.177 57.916 51.32 81.671 80.968 93.584 116.767 145.091 267.159 138.674 403.385-0.034 0.519-0.054 1.125-0.054 1.736 0 15.42 12.501 27.921 27.921 27.921 15.106 0 27.411-11.997 27.906-26.983 7.067-149.481-49.014-314.072-150.185-439.922-31.848-39.941-67.497-74.745-106.999-104.738-5.984-4.466-11.657-6.532-17.81-6.605zM265.694 682.667c-15.422 0.022-27.916 12.53-27.916 27.955 0 2.835 0.422 5.572 1.207 8.151 13.057 45.489 33.844 85.237 61.082 119.644 49.048 61.167 116.701 95.949 194.866 99.874 0.956 0 1.877 0 2.799 0 78.507-3.925 145.954-38.741 195.584-100.625 26.56-33.495 47.279-72.995 59.81-115.984 1.39-4.882 1.841-7.708 1.841-10.64 0-15.42-12.501-27.921-27.921-27.921-12.718 0-23.45 8.503-26.821 20.135-10.943 38.262-28.192 71.39-50.794 100.107-38.582 48.093-91.693 75.638-152.962 79.086-61.44-3.413-114.381-30.993-153.429-79.701-22.288-28.255-39.636-61.582-50.052-97.842-3.957-13.784-14.638-22.22-27.292-22.239zM496.503 546.441c-63.34 0-114.688 51.348-114.688 114.688s51.348 114.688 114.688 114.688c63.34 0 114.688-51.348 114.688-114.688 0-0.012 0-0.024 0-0.036-0.078-63.301-51.383-114.594-114.682-114.652zM496.503 719.941c-32.5 0-58.846-26.346-58.846-58.846s26.346-58.846 58.846-58.846c32.5 0 58.846 26.346 58.846 58.846-0.039 32.484-26.362 58.807-58.842 58.846zM926.925-84.958h-860.843c-15.418 0.003-27.916 12.503-27.916 27.921 0 4.261 0.954 8.299 2.661 11.912l176.738 381.407c4.542 9.631 14.17 16.177 25.327 16.179h51.2c15.42 0 27.921-12.501 27.921-27.921s-12.501-27.921-27.921-27.921h-33.382l-150.938-325.734h772.471l-154.249 316.416h-33.724c-15.42 0-27.921 12.501-27.921 27.921s12.501 27.921 27.921 27.921h51.2c10.967-0.007 20.454-6.335 25.015-15.538l181.56-372.421c1.776-3.569 2.816-7.773 2.816-12.22 0-15.414-12.491-27.911-27.903-27.921z" />
<glyph unicode="&#xe929;" glyph-name="clock" d="M514.253 354.748c-15.609 0-28.262 12.654-28.262 28.262v155.614c0 15.609 12.654 28.262 28.262 28.262s28.262-12.654 28.262-28.262v-155.614c0-15.609-12.654-28.262-28.262-28.262zM771.038 333.654h-254.498c-15.609 0-28.262 12.654-28.262 28.262s12.654 28.262 28.262 28.262h254.532c15.609 0 28.262-12.654 28.262-28.262s-12.654-28.262-28.262-28.262zM512 786.944c-15.609 0-28.262 12.654-28.262 28.262v70.656c0 15.609 12.654 28.262 28.262 28.262s28.262-12.654 28.262-28.262v-70.656c0-15.609-12.654-28.262-28.262-28.262zM512-65.536c-15.609 0-28.262 12.654-28.262 28.262v70.656c0 15.609 12.654 28.262 28.262 28.262s28.262-12.654 28.262-28.262v-70.656c0-15.609-12.654-28.262-28.262-28.262zM512-83.183c-281.122 0-509.85 228.727-509.85 509.85s228.727 509.85 509.85 509.85 509.85-228.727 509.85-509.85-228.727-509.85-509.85-509.85zM512 879.992c-249.958 0-453.325-203.366-453.325-453.325s203.366-453.325 453.325-453.325 453.325 203.366 453.325 453.325-203.366 453.325-453.325 453.325zM982.46 398.405h-70.656c-15.609 0-28.262 12.654-28.262 28.262s12.654 28.262 28.262 28.262h70.656c15.609 0 28.262-12.654 28.262-28.262s-12.654-28.262-28.262-28.262zM106.428 398.405h-70.656c-15.609 0-28.262 12.654-28.262 28.262s12.654 28.262 28.262 28.262h70.656c15.609 0 28.262-12.654 28.262-28.262s-12.654-28.262-28.262-28.262z" />
<glyph unicode="&#xe92a;" glyph-name="total-bonus" d="M533.707 233.551v-48.007h-41.712v45.727c-33.717 0.578-65.699 8.574-98.259 17.012l18.271 48.551c26.844-10.207 50.286-21.129 79.988-21.707v135.549c-48.041 18.271-99.961 39.433-99.961 107.854 0 61.684 45.149 90.842 99.995 97.681v51.545h41.712v-50.252c25.144-1.701 57.125-6.295 82.268-14.868l-18.271-48.551c-17.692 7.995-36.575 16.569-63.998 18.849v-120.544c47.973-18.271 98.259-42.291 98.259-114.829-0.034-69.135-42.869-96.558-98.293-104.010zM492.573 571.198c-30.281-6.805-43.992-25.722-43.992-52.566 0-25.722 19.427-38.854 43.992-49.708zM533.129 392.372v-111.393c22.864 6.805 42.291 22.864 42.291 55.424 0 28.58-18.849 43.992-42.291 56.002zM918.034 388.153h-98.43c-15.032 0-27.219 12.187-27.219 27.219s12.187 27.219 27.219 27.219h98.43c15.032 0 27.219-12.187 27.219-27.219s-12.187-27.219-27.219-27.219zM204.396 388.153h-98.43c-15.032 0-27.219 12.187-27.219 27.219s12.187 27.219 27.219 27.219h98.43c15.032 0 27.219-12.187 27.219-27.219s-12.187-27.219-27.219-27.219zM741.691 587.461c-14.997 0.046-27.138 12.214-27.138 27.219 0 7.488 3.023 14.27 7.916 19.191l69.611 69.611c4.811 4.372 11.231 7.048 18.276 7.048 15.032 0 27.219-12.187 27.219-27.219 0-7.045-2.676-13.465-7.068-18.299l-69.592-69.589c-4.922-4.916-11.717-7.958-19.223-7.961zM237.058 82.828c-14.997 0.046-27.138 12.214-27.138 27.219 0 7.488 3.023 14.27 7.916 19.191l69.611 69.474c4.999 5.502 12.183 8.943 20.171 8.943 15.032 0 27.219-12.187 27.219-27.219 0-7.987-3.441-15.171-8.92-20.15l-69.634-69.495c-4.922-4.916-11.717-7.958-19.223-7.961zM277.239 587.461c-7.507 0.004-14.302 3.045-19.224 7.961l-69.714 69.612c-5.502 4.999-8.943 12.183-8.943 20.171 0 15.032 12.187 27.219 27.219 27.219 7.987 0 15.171-3.441 20.15-8.92l69.632-69.634c4.892-4.92 7.915-11.702 7.915-19.19 0-14.969-12.083-27.115-27.027-27.218zM781.77 82.828c-7.507 0.004-14.302 3.045-19.224 7.961l-69.612 69.612c-4.372 4.811-7.048 11.231-7.048 18.276 0 15.032 12.187 27.219 27.219 27.219 7.045 0 13.465-2.676 18.299-7.068l69.589-69.592c4.891-4.92 7.915-11.701 7.915-19.189 0-15.004-12.141-27.173-27.134-27.219zM509.414 785.851c-15.032 0-27.219 12.187-27.219 27.219v98.396c0 15.032 12.187 27.219 27.219 27.219s27.219-12.187 27.219-27.219v-98.43c-0.019-15.017-12.199-27.185-27.219-27.185zM509.414-85.315c-15.032 0-27.219 12.187-27.219 27.219v98.396c0 15.032 12.187 27.219 27.219 27.219s27.219-12.187 27.219-27.219v-98.43c-0.019-15.017-12.199-27.185-27.219-27.185z" />
<glyph unicode="&#xe92b;" glyph-name="users" d="M312.409 422.805c-0.010 0-0.022 0-0.034 0-103.319 0-187.074 83.756-187.074 187.074s83.756 187.074 187.074 187.074c103.319 0 187.074-83.756 187.074-187.074-0.117-103.259-83.784-186.938-187.027-187.074zM312.409 750.632c-77.754 0-140.787-63.032-140.787-140.787s63.032-140.787 140.787-140.787c77.754 0 140.787 63.032 140.787 140.787s-63.032 140.787-140.787 140.787zM601.674 56.381c-12.782 0-23.144 10.362-23.144 23.144 0 146.975-119.147 266.121-266.121 266.121s-266.121-119.147-266.121-266.121c0-12.782-10.362-23.144-23.144-23.144s-23.144 10.362-23.144 23.144c0 172.577 139.901 312.478 312.478 312.478s312.478-139.901 312.478-312.478c0 0 0 0 0 0 0-12.782-10.362-23.144-23.144-23.144-0.048 0-0.097 0-0.145 0zM772.37 473.11c-84.297 0-152.634 68.337-152.634 152.634s68.337 152.634 152.634 152.634c84.273 0 152.595-68.298 152.634-152.561-0.058-84.291-68.352-152.609-152.624-152.706zM772.37 732.090c-58.79 0-106.448-47.658-106.448-106.448s47.658-106.448 106.448-106.448c58.79 0 106.448 47.658 106.448 106.448 0 0.051 0 0.112 0 0.172 0 58.79-47.658 106.448-106.448 106.448 0 0 0 0 0 0zM1000.891 172.102c-12.782 0-23.144 10.362-23.144 23.144-0.011 113.437-91.973 205.392-205.412 205.392-93.005 0-171.573-61.81-196.867-146.593-3.261-11.179-12.12-18.15-22.606-18.15-12.786 0-23.152 10.366-23.152 23.152 0 2.301 0.335 4.522 0.96 6.62 31.423 105.484 127.684 181.201 241.631 181.201 138.982 0 251.655-112.645 251.699-251.617 0-0.004 0-0.004 0-0.004 0-12.77-10.343-23.124-23.108-23.144z" />
<glyph unicode="&#xe92c;" glyph-name="van-1" d="M931.601 469.368l-178.756 173.227-184.115 1.434v-216.201h-552.926l-0.41-68.471h-16.521v-101.751h126.805c-0.58 1.809-1.161 3.652-1.604 5.495s-1.092 4.54-1.468 6.827c-0.923 4.952-1.451 10.649-1.451 16.469 0 52.030 42.178 94.208 94.208 94.208s94.208-42.178 94.208-94.208c0-5.82-0.528-11.517-1.538-17.046-0.322-1.744-0.834-4.031-1.38-6.25s-1.024-3.686-1.604-5.495h462.336c-0.58 1.809-1.161 3.652-1.604 5.495s-1.092 4.54-1.468 6.827c-0.923 4.952-1.451 10.649-1.451 16.469 0 52.030 42.178 94.208 94.208 94.208s94.208-42.178 94.208-94.208c0-5.82-0.528-11.517-1.538-17.046-0.322-1.744-0.834-4.031-1.38-6.25s-1.024-3.686-1.604-5.495h78.507v126.498c-11.127 38.502-93.662 85.265-93.662 85.265zM730.829 480.359l-89.361-1.365s-30.242 15.121-34.372 48.128v87.996h123.767zM813.329 454.247l-71.509 26.112v134.758l71.509-79.735zM856.337 357.137c-40.813 0-73.899-33.086-73.899-73.899s33.086-73.899 73.899-73.899c40.813 0 73.899 33.086 73.899 73.899 0 0.024 0 0.048 0 0.072-0.039 40.78-33.11 73.827-73.899 73.827zM856.337 261.223c-12.159 0-22.016 9.857-22.016 22.016s9.857 22.016 22.016 22.016c12.159 0 22.016-9.857 22.016-22.016s-9.857-22.016-22.016-22.016zM215.586 357.137c-40.813 0-73.899-33.086-73.899-73.899s33.086-73.899 73.899-73.899c40.813 0 73.899 33.086 73.899 73.899 0 0.024 0 0.048 0 0.072-0.039 40.78-33.11 73.827-73.899 73.827zM215.586 261.223c-0.010 0-0.022 0-0.034 0-12.159 0-22.016 9.857-22.016 22.016s9.857 22.016 22.016 22.016c12.135 0 21.977-9.818 22.016-21.944 0-0.024 0-0.048 0-0.072 0-12.147-9.838-21.997-21.98-22.016z" />
<glyph unicode="&#xe92d;" glyph-name="van-2" d="M851.524 357.24c-0.054 0-0.118 0-0.182 0-12.888 0-24.991-3.366-35.475-9.268 10.441 5.797 22.467 9.098 35.265 9.098 40.211 0 72.808-32.597 72.808-72.808 0-27.413-15.15-51.288-37.534-63.708 22.595 12.361 37.914 36.348 37.914 63.913 0 40.21-32.597 72.806-72.806 72.806-0.008 0-0.016 0-0.024 0zM147.388 284.229c-0.001 0.109-0.001 0.238-0.001 0.367 0 40.097 32.505 72.602 72.602 72.602 4.817 0 9.525-0.469 14.080-1.364-5.108 1.132-10.447 1.737-15.927 1.737-40.21 0-72.806-32.597-72.806-72.806 0-35.748 25.764-65.479 59.738-71.637-32.914 6.992-57.6 36.152-57.685 71.092zM925.389 466.023l-176.094 170.667-701.713 5.427s-24.371-125.952-24.371-162.543v-47.411l-0.444-74.513h-16.282v-100.25h124.928c-0.58 1.809-1.126 3.413-1.604 5.427s-1.058 4.471-1.468 6.827c-0.912 4.886-1.434 10.507-1.434 16.249 0 51.257 41.552 92.809 92.809 92.809s92.809-41.552 92.809-92.809c0-5.743-0.522-11.364-1.52-16.818-0.289-1.718-0.835-3.971-1.381-6.258s-1.024-3.618-1.604-5.427h455.578c-0.58 1.809-1.126 3.413-1.604 5.427s-1.058 4.471-1.468 6.827c-0.912 4.886-1.434 10.507-1.434 16.249 0 51.257 41.552 92.809 92.809 92.809s92.809-41.552 92.809-92.809c0-5.743-0.522-11.364-1.52-16.818-0.289-1.718-0.835-3.971-1.381-6.258s-1.024-3.618-1.57-5.427h77.278v124.655c-10.854 37.786-92.126 83.968-92.126 83.968zM727.62 476.843l-88.064-1.365s-29.798 14.916-33.86 47.411v86.733h121.924zM808.96 451.141l-70.451 25.737v132.745l70.451-78.507zM233.609 355.772c33.022-7.364 57.339-36.415 57.339-71.145 0-40.21-32.597-72.806-72.806-72.806-4.461 0-8.829 0.401-13.069 1.17 5.093-1.123 10.431-1.729 15.911-1.729 40.21 0 72.806 32.597 72.806 72.806 0 35.748-25.764 65.479-59.738 71.637zM291.703 284.433c-0.117 40.009-32.577 72.397-72.601 72.397-40.097 0-72.602-32.505-72.602-72.602 0-40.025 32.388-72.485 72.385-72.601 40.213 0.019 72.798 32.604 72.817 72.804zM198.519 284.229c0 11.971 9.704 21.675 21.675 21.675s21.675-9.704 21.675-21.675c0-11.971-9.704-21.675-21.675-21.675s-21.675 9.704-21.675 21.675zM778.718 284.433c0 0.004 0 0.009 0 0.014 0 27.263 14.992 51.024 37.181 63.49-22.391-12.421-37.541-36.296-37.541-63.709 0-40.211 32.597-72.808 72.808-72.808 12.798 0 24.824 3.302 35.274 9.1-10.361-5.677-22.261-8.906-34.915-8.906-40.21 0-72.806 32.597-72.806 72.806 0 0.004 0 0.009 0 0.013zM923.58 284.024c-0.373 39.303-32.321 71.020-71.677 71.020-39.588 0-71.68-32.092-71.68-71.68s32.092-71.68 71.68-71.68c12.507 0 24.266 3.203 34.501 8.834 22.183 12.475 37.173 36.24 37.176 63.505zM850.773 262.349c-11.971 0-21.675 9.704-21.675 21.675s9.704 21.675 21.675 21.675c11.971 0 21.675-9.704 21.675-21.675s-9.704-21.675-21.675-21.675z" />
<glyph unicode="&#xe92e;" glyph-name="hexagon" horiz-adv-x="1033" d="M0.433 429.398c0.352 14.539 4.23 29.079 11.544 42.12v0l214.128 378.381c15.949 28.198 45.909 45.557 78.161 45.557l423.145-0.616c32.339 0 62.388-17.712 78.161-45.821l212.19-379.085c15.245-27.141 15.157-60.89-0.176-88.119l-214.216-378.381c-15.949-28.198-45.909-45.557-78.161-45.557l-423.145 0.616c-32.339 0-62.388 17.712-78.161 45.821l-212.19 379.085c-8.019 14.187-11.72 30.136-11.279 45.997zM41.76 454.512c-9.517-16.742-9.517-37.627-0.176-54.458l212.102-378.909c9.781-17.448 28.286-28.286 48.288-28.374l423.145-0.616c19.915 0 38.508 10.75 48.288 28.198l214.216 378.293c9.517 16.742 9.517 37.627 0.176 54.458l-212.102 378.909c-9.781 17.536-28.286 28.286-48.288 28.374l-423.145 0.616c-19.915 0-38.508-10.75-48.288-28.198l-214.216-378.293z" />
<glyph unicode="&#xe92f;" glyph-name="truck" d="M457.482 318.476h-234.329c-120.889 0-218.751 97.862-219.091 218.751v67.725c0.338 120.889 98.202 218.751 219.091 218.751h234.329c120.889 0 218.751-97.862 218.751-218.751v-67.725c-0.338-120.551-98.202-218.413-218.751-218.751zM223.153 766.477c-89.059-0.338-161.186-72.465-161.186-161.524v-67.725c0-89.059 72.127-161.186 161.186-161.186h234.329c89.059 0 161.186 72.127 161.186 161.186v67.725c0 89.059-72.127 161.186-161.186 161.186l-234.329 0.338zM994.88 165.079h-84.995c-15.916 0-28.783 12.868-28.783 28.783s12.868 28.783 28.783 28.783v0h56.211v114.794l-87.704 224.847h-162.202c-15.916 0-28.783 12.868-28.783 28.783s12.868 28.783 28.783 28.783v0h182.18c11.852 0 22.349-7.111 26.751-18.286l96.846-247.874c1.354-3.386 2.032-6.773 2.032-10.497v-149.334c-0.338-15.916-13.206-28.783-29.122-28.783 0 0 0 0 0 0zM586.16 162.709h-167.619c-15.916 0-28.783 12.868-28.783 28.783s12.868 28.783 28.783 28.783v0h167.619c15.916 0 28.783-12.868 28.783-28.783s-12.868-28.783-28.783-28.783zM97.185 160.338h-68.402c-15.916 0-28.783 12.868-28.783 28.783 0 0 0 0 0 0v139.513c0 15.916 12.868 28.783 28.783 28.783s28.783-12.868 28.783-28.783v0-111.069h39.619c15.916 0 28.783-12.868 28.783-28.783s-12.868-28.445-28.783-28.445v0zM253.291 29.63c-73.143 0-132.741 59.259-132.741 132.741 0 73.143 59.259 132.741 132.741 132.741s132.741-59.259 132.741-132.741c-0.338-73.143-59.598-132.741-132.741-132.741zM253.291 237.545c-41.651 0-75.513-33.524-75.513-75.175s33.524-75.513 75.175-75.513c41.651 0 75.513 33.524 75.513 75.175 0 0 0 0 0 0.338-0.338 41.313-33.862 74.836-75.175 75.175zM747.684 29.63c-73.143 0-132.741 59.259-132.741 132.741s59.259 132.741 132.741 132.741 132.741-59.259 132.741-132.741c-0.338-73.143-59.598-132.741-132.741-132.741zM747.684 237.545c-41.651 0-75.513-33.524-75.513-75.175s33.524-75.513 75.175-75.513c41.651 0 75.513 33.524 75.513 75.175 0 0 0 0 0 0.338-0.338 41.313-33.862 74.836-75.175 75.175z" />
<glyph unicode="&#xe930;" glyph-name="cash" horiz-adv-x="976" d="M533.668 16.713v-102.046h-88.483v97.050c-71.358 1.43-139.865 18.553-208.367 36.391l38.535 102.755c57.088-22.119 107.041-44.958 169.832-46.383v287.578c-102.046 38.535-211.937 83.489-211.937 229.064 0 131.298 95.623 192.671 211.937 207.653v109.892h88.483v-107.041c53.52-3.568 121.313-13.557 174.828-31.397l-38.535-102.755c-37.821 17.124-77.783 34.967-135.583 39.964v-256.179c102.046-38.535 208.367-89.911 208.367-244.049-0.714-146.999-91.341-204.801-209.083-220.502zM445.899 733.154c-64.223-14.273-93.479-54.945-93.479-111.322 0-54.945 41.386-82.779 93.479-105.612v216.929zM532.244 353.526v-236.196c48.526 14.273 89.911 48.526 89.911 117.74 0 60.654-39.964 93.479-89.911 118.454v0z" />
<glyph unicode="&#xe931;" glyph-name="cheap" d="M603.023-23.387l216.177 374.835c22.756 39.191 25.916 77.748 8.849 108.089-13.906 24.652-38.558 40.455-70.795 46.143v408.968c0 13.274-10.746 24.020-24.020 24.020s-24.020-10.746-24.020-24.020v-429.827c0-13.274 10.113-23.388 23.388-24.020 26.548-0.632 45.511-9.481 53.728-24.020 8.217-15.171 5.056-37.294-8.849-60.682l-216.177-374.835c-13.906-24.020-31.605-37.926-49.304-37.926s-35.398 13.906-49.304 37.926l-216.177 374.835c-13.906 24.020-17.066 46.143-8.849 60.682s27.181 23.388 53.728 24.020c13.274 0.632 23.388 10.746 23.388 24.020v405.807h223.763c13.274 0 24.020 10.746 24.020 24.020s-10.746 24.020-24.020 24.020h-247.783c-13.274 0-24.020-10.746-24.020-24.020v-408.336c-32.237-5.688-56.889-22.123-70.795-46.143-17.066-30.34-13.906-68.899 8.849-108.089l216.177-374.835c23.388-39.823 55.624-61.946 91.022-61.946 35.398-0.632 67.634 21.491 91.022 61.314zM531.595 314.786v-43.615h-37.926v41.086c-30.34 0.632-59.417 7.585-89.126 15.803l16.435 44.247c24.652-9.481 45.511-18.964 72.692-19.595v122.628c-43.615 16.435-90.39 35.398-90.39 97.976 0 55.624 41.086 82.173 90.39 88.493v46.775h37.926v-46.143c22.756-1.264 51.833-5.688 74.588-13.274l-16.435-44.247c-15.803 6.954-32.869 15.171-58.153 17.066v-109.354c43.615-16.435 89.126-38.558 89.126-104.296 0-61.946-38.558-86.598-89.126-93.551zM494.301 620.722c-27.181-6.322-39.823-23.388-39.823-47.407 0-23.388 17.698-35.398 39.823-44.879v92.286zM530.963 458.905v-101.136c20.859 6.322 38.558 20.859 38.558 49.936 0 25.916-17.066 39.823-38.558 51.199v0z" />
<glyph unicode="&#xe934;" glyph-name="wifi" horiz-adv-x="819" d="M490.507 183.567c0-44.783-36.303-81.087-81.087-81.087s-81.087 36.303-81.087 81.087c0 44.783 36.303 81.087 81.087 81.087s81.087-36.303 81.087-81.087zM581.49 355.636c-94.814 94.814-249.166 94.814-343.98 0-15.802-15.802-15.802-41.501 0-57.303s41.501-15.802 57.303 0c63.209 63.209 153.873 47.886 229.373 0 38.788-24.581 49.482-7.981 57.303 0 15.802 15.802 15.802 41.341 0 57.303zM697.852 471.999c-159.141 159.141-417.884 159.141-577.024 0-15.802-15.802-15.802-41.501 0-57.303s41.501-15.802 57.303 0c127.536 127.376 328.976 121.151 462.258 0 31.924-28.891 49.482-7.981 57.303 0 15.962 15.802 15.962 41.501 0.16 57.303zM803.201 584.371c-105.030 107.424-245.016 166.483-393.781 166.483s-288.751-59.059-393.781-166.483c-15.643-15.962-15.323-41.661 0.638-57.303 7.821-7.662 30.487-26.178 57.303 0.638 90.664 90.664 209.101 142.061 335.839 142.061 126.897 0 246.133-50.44 335.999-142.061 15.643-15.962 41.341-16.281 57.303-0.638s16.281 41.341 0.479 57.303z" />
<glyph unicode="&#xe935;" glyph-name="sofa" horiz-adv-x="1414" d="M1155.902 553.688v105.872c0 55.389-45.762 101.153-101.153 101.153h-695.504c-55.389 0-101.153-45.762-101.153-101.153v-105.872c-50.484-5.992-90.255-48.123-90.255-99.876v-337.035c0-13.257 10.895-24.156 24.156-24.156h179.236c13.257 0 24.156 10.895 24.156 24.156v54.115h622.139v-54.115c0-13.257 10.895-24.156 24.156-24.156h179.236c13.257 0 24.156 10.895 24.156 24.156v337.035c1.091 50.484-38.498 93.888-89.167 99.876zM352.17 132.388h-142.005v320.154c0 28.874 21.609 62.11 60.288 62.11h25.241c38.498 0 60.288-33.231 60.288-62.11l-3.817-320.154zM299.146 553.688v105.872c0 28.874 21.609 60.288 60.288 60.288h335.771v-325.049h-298.537v57.746c0 51.756-47.038 95.153-97.52 101.153zM396.656 211.744v142.005h622.139v-143.827l-622.139 1.816zM1017.528 452.535v-57.746h-298.364v325.049h335.771c38.498 0 60.288-31.42 60.288-60.288v-105.872c-50.67-5.992-97.695-49.393-97.695-101.153zM1205.297 132.388h-145.637v320.154c0 28.874 11.986 60.288 60.288 60.288h25.241c48.302 0 60.288-31.42 60.288-60.288v-320.154z" />
<glyph unicode="&#xe936;" glyph-name="check" d="M371.13 259.578c-0.019 0-0.035 0-0.057 0-9.391 0-17.846 3.984-23.781 10.35l-140.936 151.752c-6.389 5.955-10.375 14.422-10.375 23.825 0 17.968 14.567 32.535 32.535 32.535 10.21 0 19.321-4.703 25.281-12.054l120.222-129.406 399.023 327.411c5.58 4.605 12.798 7.395 20.673 7.395 17.997 0 32.588-14.591 32.588-32.588 0-10.122-4.614-19.171-11.861-25.147l-422.895-346.863c-5.514-4.488-12.632-7.21-20.38-7.21-0.020 0-0.034 0-0.053 0z" />
</font>
</defs>
</svg>
